<svg width="163" height="120" viewBox="0 0 163 120" fill="none" xmlns="http://www.w3.org/2000/svg">
<path fill-rule="evenodd" clip-rule="evenodd" d="M33.0535 25.9536H111.293C116.356 25.9536 118.377 31.0205 120.498 36.0733L134.306 68.9616C136.565 74.3407 133.234 79.0813 125.102 79.0813H19.2453C11.9765 79.0813 6.93466 76.3593 10.0407 68.9616L23.8488 36.0733C25.9706 31.0193 27.9908 25.9536 33.0535 25.9536Z" stroke="#858585" stroke-width="3.77953"/>
<path fill-rule="evenodd" clip-rule="evenodd" d="M37.6558 32.1226H105.618C109.505 32.1226 110.924 36.0839 112.685 39.8925L124.363 65.1443C127.904 72.8001 124.949 72.9143 117.296 72.9143H27.0539C19.9197 72.9143 16.3272 73.8599 19.9865 65.1443L30.5885 39.8925C32.2175 36.0121 33.7686 32.1226 37.6558 32.1226Z" fill="white" stroke="#858585" stroke-width="3.77953"/>
<g class="icon-animation-10">
<path fill-rule="evenodd" clip-rule="evenodd" d="M130.311 63.035C130.311 63.1646 131.672 64.4878 131.709 64.4878C131.941 64.4878 139.707 56.3369 140.759 55.4612C141.727 54.6561 142.504 54.3957 143.564 53.7464C143.933 53.5196 144.666 53.159 145.048 52.9716C145.583 52.7085 146.045 52.4364 146.535 52.1983C147.054 51.9466 147.519 51.6726 147.745 51.1491C147.943 50.6914 148.332 50.1638 148.56 49.7049C148.89 49.0431 149.983 47.1908 150.104 46.6741C149.973 46.4277 148.485 44.8441 148.275 44.8441C147.999 44.8441 145.599 46.108 145.228 46.3158C145.08 46.3986 144.59 46.6337 144.455 46.673C144.285 46.7225 143.904 46.9625 143.718 47.0657C143.105 47.4051 142.943 47.602 142.606 48.2135C142.085 49.158 141.505 50.2193 141.06 51.1869C140.678 52.0146 139.943 53.3665 139.36 54.0072C138.552 54.8954 130.311 63.0138 130.311 63.035Z" fill="#FEFEFE"/>
<path fill-rule="evenodd" clip-rule="evenodd" d="M109.658 45.2209C109.855 45.2738 113.352 47.7438 113.76 48.059C115.025 49.0356 116.219 50.3312 116.219 52.5404V53.1863C116.219 53.5601 115.735 54.8508 115.575 55.1248C115.209 55.7511 114.924 56.1218 114.488 56.6744C113.893 57.4292 112.322 58.4602 111.002 58.4602H110.249C108.855 58.4602 107.946 57.8268 107.099 57.2542C106.715 56.9953 104.754 55.5012 104.548 55.4464C104.562 56.047 105.355 57.5293 105.646 57.9538C106.126 58.653 106.699 59.3889 107.366 59.8919C108.62 60.8376 110.513 61.9045 112.67 61.9045L113.319 61.9325L114.713 61.7431H115.251C118.251 61.7431 119.148 63.0319 120.643 64.5283C122.028 65.9138 123.373 67.2597 124.758 68.6453C126.133 70.0218 127.47 71.359 128.845 72.7355C129.539 73.4302 130.195 74.0859 130.889 74.7806C131.176 75.0679 131.678 75.5085 131.903 75.8113C132.06 76.0226 132.184 76.1881 132.341 76.3952C132.526 76.6386 132.513 76.9353 132.731 77.0816C132.731 77.1281 132.94 78.1009 132.977 78.2343C133.109 78.7022 133.161 78.9014 133.161 79.5031L133.18 79.9907L132.946 81.5482V82.1405C132.946 84.4539 134.232 86.7916 135.407 87.9659C135.791 88.3499 136.048 88.5997 136.487 88.9304C136.981 89.3023 137.263 89.4221 137.786 89.7294C138.411 90.0971 140.082 90.6437 141.067 90.6437H142.197C143.271 90.6437 144.066 90.2551 144.94 90.0514C144.876 89.8137 141.622 87.6227 141.165 87.3173C140.123 86.6215 138.486 85.1278 138.486 83.4856C138.421 83.3885 138.378 83.3911 138.378 83.2706V82.1405C138.378 80.7413 139.417 79.3554 140.056 78.5446C140.335 78.1909 141.067 77.5306 141.479 77.3322C141.877 77.1409 142.975 76.7048 143.488 76.7048H144.295C145.681 76.7048 146.677 77.2743 147.477 77.8794C147.757 78.0907 149.927 79.6861 150.049 79.7186C150.049 79.1063 149.391 77.9248 149.14 77.5068C148.736 76.8344 148.292 76.2671 147.75 75.7225C147.069 75.038 144.85 73.5296 143.595 73.5296L143.605 73.4691L142.089 73.2601L141.497 73.2465L140.422 73.3141C140.325 73.3792 140.328 73.4219 140.207 73.4219H138.54C137.534 73.4219 136.061 72.6546 135.488 72.1701C134.805 71.5937 133.996 70.6775 133.336 70.0176C131.889 68.5697 130.481 67.1607 129.033 65.7124C127.586 64.2641 126.178 62.8551 124.731 61.4071C124.001 60.6769 123.282 60.0106 122.607 59.2271C122.102 58.642 121.437 57.0932 121.437 56.0387V54.9623C121.437 54.6463 121.598 54.3576 121.598 53.8859V52.594C121.598 50.7557 120.325 48.3145 119.379 47.3873C118.788 46.8079 118.118 46.1008 117.366 45.6884C117.183 45.5883 116.914 45.4352 116.774 45.3653C116.646 45.3007 116.548 45.3324 116.411 45.2447C116.295 45.1707 116.283 45.1068 116.122 45.0497C115.761 44.922 114.915 44.7999 114.66 44.6181L112.724 44.5213H111.863C111.488 44.5213 109.722 44.9824 109.658 45.2209Z" fill="#FEFEFE"/>
<path fill-rule="evenodd" clip-rule="evenodd" d="M107.345 85.5848C107.345 84.2581 109.004 82.6889 110.505 82.9032C111.546 83.0517 111.906 83.1636 112.573 83.7437C112.728 83.8787 113.085 84.3689 113.19 84.5798C113.244 84.6898 113.584 85.5746 113.584 85.6384V86.123C113.584 87.5788 112.22 89.1368 110.841 89.1368H110.088C108.877 89.1368 107.345 87.6034 107.345 86.338V85.5848ZM105.731 85.7998V86.4994C105.731 86.962 106.103 87.8944 106.269 88.2225C106.506 88.6915 106.913 89.1077 107.278 89.4728C107.977 90.1727 109.036 90.8587 110.41 90.8587H110.787C112.67 90.8587 114.486 88.5842 115.534 87.5354C116.891 86.177 118.21 84.8576 119.568 83.4992C120.925 82.1405 122.243 80.8214 123.601 79.4627C124.287 78.7771 124.933 78.1308 125.618 77.4448C126.075 76.9878 127.333 75.8449 127.635 75.3997L121.167 68.9548C120.736 69.244 119.594 70.5025 119.137 70.9595C118.451 71.6455 117.806 72.2922 117.12 72.9778C115.763 74.3361 114.444 75.6556 113.086 77.0143C111.729 78.3727 110.41 79.6921 109.053 81.0508C108.009 82.0947 105.731 83.9244 105.731 85.7998Z" fill="#FEFEFE"/>
<path fill-rule="evenodd" clip-rule="evenodd" d="M105.731 85.7998C105.731 83.9244 108.009 82.0947 109.053 81.0508C110.411 79.6921 111.729 78.3727 113.086 77.0143C114.444 75.6556 115.763 74.3361 117.12 72.9778C117.806 72.2922 118.451 71.6455 119.137 70.9595C119.594 70.5026 120.736 69.244 121.167 68.9548L127.635 75.3997C127.333 75.8449 126.075 76.9878 125.618 77.4448C124.933 78.1308 124.287 78.7771 123.601 79.4627C122.243 80.8214 120.925 82.1405 119.568 83.4992C118.21 84.8576 116.891 86.177 115.534 87.5354C114.486 88.5842 112.67 90.8587 110.787 90.8587H110.411C109.036 90.8587 107.977 90.1727 107.278 89.4728C106.913 89.1077 106.506 88.6915 106.269 88.2225C106.103 87.8944 105.731 86.962 105.731 86.4994V85.7998ZM130.311 63.035C130.311 63.0138 138.552 54.8954 139.36 54.0072C139.943 53.3666 140.678 52.0146 141.059 51.1869C141.505 50.2193 142.085 49.158 142.606 48.2135C142.943 47.602 143.105 47.4051 143.718 47.0657C143.904 46.9625 144.285 46.7225 144.455 46.673C144.59 46.6337 145.08 46.3986 145.228 46.3158C145.599 46.108 147.999 44.8441 148.275 44.8441C148.485 44.8441 149.973 46.4277 150.104 46.6741C149.983 47.1908 148.89 49.0432 148.56 49.7049C148.332 50.1638 147.943 50.6914 147.745 51.1491C147.519 51.6726 147.054 51.9466 146.535 52.1983C146.045 52.4364 145.583 52.7085 145.048 52.9716C144.666 53.1591 143.933 53.5196 143.564 53.7464C142.504 54.3957 141.727 54.6561 140.759 55.4612C139.707 56.3369 131.941 64.4878 131.709 64.4878C131.672 64.4878 130.311 63.1646 130.311 63.035ZM131.903 75.8113C131.678 75.5085 131.176 75.0678 130.889 74.7806C130.195 74.0859 129.539 73.4302 128.845 72.7355C127.47 71.359 126.133 70.0218 124.758 68.6453C123.373 67.2597 122.028 65.9138 120.643 64.5283C119.148 63.0319 118.251 61.7431 115.251 61.7431H114.713L113.319 61.9325L112.67 61.9045C110.513 61.9045 108.62 60.8375 107.367 59.8919C106.699 59.3889 106.126 58.653 105.646 57.9538C105.355 57.5293 104.562 56.047 104.548 55.4464C104.754 55.5012 106.715 56.9953 107.099 57.2542C107.946 57.8268 108.855 58.4602 110.249 58.4602H111.002C112.322 58.4602 113.893 57.4292 114.488 56.6744C114.924 56.1218 115.209 55.7511 115.575 55.1248C115.735 54.8508 116.219 53.5601 116.219 53.1863V52.5403C116.219 50.3312 115.025 49.0356 113.76 48.059C113.352 47.7437 109.855 45.2738 109.658 45.2209C109.722 44.9824 111.488 44.5213 111.863 44.5213H112.724L114.66 44.6181C114.915 44.7999 115.761 44.922 116.122 45.0497C116.283 45.1068 116.295 45.1706 116.411 45.2447C116.548 45.3324 116.646 45.3007 116.775 45.3653C116.914 45.4352 117.183 45.5883 117.366 45.6884C118.119 46.1008 118.788 46.8079 119.379 47.3873C120.325 48.3145 121.598 50.7557 121.598 52.594V53.8859C121.598 54.3575 121.437 54.6463 121.437 54.9623V56.0387C121.437 57.0932 122.103 58.642 122.607 59.2271C123.282 60.0106 124.001 60.6769 124.731 61.4071C126.178 62.8551 127.586 64.2641 129.033 65.7124C130.481 67.1607 131.889 68.5697 133.336 70.0176C133.996 70.6775 134.805 71.5937 135.488 72.1701C136.061 72.6546 137.534 73.4219 138.54 73.4219H140.207C140.328 73.4219 140.325 73.3791 140.422 73.3141L141.497 73.2465L142.089 73.2601L143.605 73.4691L143.595 73.5296C144.85 73.5296 147.069 75.038 147.75 75.7225C148.292 76.2671 148.736 76.8344 149.14 77.5068C149.391 77.9248 150.049 79.1063 150.049 79.7186C149.927 79.686 147.757 78.0907 147.477 77.8794C146.677 77.2743 145.681 76.7048 144.295 76.7048H143.488C142.975 76.7048 141.877 77.1409 141.479 77.3322C141.067 77.5306 140.335 78.1909 140.056 78.5446C139.417 79.3553 138.378 80.7413 138.378 82.1405V83.2706C138.378 83.3911 138.421 83.3885 138.486 83.4856C138.486 85.1278 140.123 86.6215 141.165 87.3173C141.622 87.6227 144.876 89.8137 144.94 90.0514C144.066 90.2551 143.271 90.6437 142.197 90.6437H141.067C140.082 90.6437 138.411 90.0971 137.786 89.7294C137.263 89.4221 136.981 89.3023 136.487 88.9304C136.048 88.5997 135.791 88.3499 135.407 87.9659C134.232 86.7916 132.946 84.4539 132.946 82.1405V81.5482L133.18 79.9907L133.161 79.5031C133.161 78.9014 133.109 78.7022 132.977 78.2343C132.94 78.1009 132.731 77.1281 132.731 77.0816C132.513 76.9353 132.526 76.6386 132.341 76.3952C132.184 76.1881 132.06 76.0226 131.903 75.8113ZM111.217 41.8307L111.056 41.938C110.137 41.938 108.357 42.5945 107.824 42.9555C106.975 43.5307 105.678 43.7065 105.678 45.1136V45.275C105.678 45.868 107.113 46.8234 107.577 47.0876C108.303 47.5 109.062 48.1466 109.765 48.6115C110.463 49.0726 111.238 49.7288 111.953 50.1358C112.589 50.4975 113.477 51.4356 113.477 52.379V52.7558C113.477 53.4697 112.944 54.1519 112.638 54.6078C112.451 54.8867 112.221 55.0802 111.962 55.2763C111.832 55.375 111.173 55.7155 111.002 55.7155H110.195C108.862 55.7155 104.053 51.1412 102.989 51.1412H102.72C101.98 51.1412 101.483 51.9133 101.483 52.7558V53.5627C101.483 56.8301 103.234 59.7014 104.884 61.3531C106.592 63.0618 109.43 64.6492 112.831 64.6492H113.638C114.096 64.6492 114.31 64.4878 114.713 64.4878H115.951C116.596 64.4878 117.384 65.1424 117.739 65.4969C117.894 65.6527 119.123 66.8406 119.123 66.9097C119.123 67.0843 111.22 74.8993 110.397 75.7225C108.923 77.1976 107.488 78.6335 106.014 80.1086C104.622 81.5014 102.935 83.0925 102.935 85.8539V86.6612C102.935 88.6137 104.231 90.4063 105.234 91.4105C106.283 92.4605 108.028 93.6574 110.088 93.6574H110.465C113.45 93.6574 114.846 92.2057 116.34 90.7109C117.823 89.2267 119.267 87.7818 120.751 86.2976C121.548 85.5005 129.527 77.458 129.612 77.458C129.939 77.458 130.418 78.8186 130.418 79.1804L130.448 79.6687L130.257 81.1718V83.0015C130.257 84.4263 131.041 86.067 131.461 87.1242C131.85 88.1004 133.012 89.4939 133.712 90.2003C135.199 91.6981 138.209 93.3883 141.175 93.3883H142.036C143.413 93.3883 145.161 92.9847 146.07 92.5274C146.646 92.2371 147.166 92.0496 147.705 91.6879C147.981 91.5027 148.19 91.3924 148.446 91.1921C148.573 91.0934 148.92 90.5734 148.92 90.4282V90.1055C148.92 89.1009 147.773 88.6273 147.113 88.1465C146.372 87.6068 145.632 87.069 144.876 86.564C144.109 86.0519 143.374 85.5156 142.626 84.9933C141.95 84.5201 141.121 83.8141 141.121 82.6787V82.3019C141.121 81.6624 141.78 80.7549 142.102 80.3773C142.551 79.8527 143.13 79.4495 144.08 79.4495H144.295C145.31 79.4495 147.287 81.1306 148.038 81.6775C148.633 82.1106 149.212 82.501 149.789 82.9387C150.209 83.2562 151.096 84.0238 151.717 84.0238C152.502 84.0238 152.752 83.5706 153.053 83.1084L153.115 82.1405V80.9564C153.115 80.3463 152.834 79.2057 152.658 78.723C152.519 78.3432 152.528 78.0718 152.327 77.7086C152.234 77.5412 151.931 76.9338 151.884 76.8068C151.506 75.7905 150.356 74.3883 149.606 73.7042C147.879 72.1308 145.246 70.5158 141.982 70.5158L141.549 70.4825L139.616 70.6772H139.131C137.536 70.6772 136.915 69.724 136.106 68.9144C135.761 68.5686 133.779 66.7431 133.753 66.4252C134.035 66.35 141.03 59.1171 141.888 58.2584C143.236 56.9099 145.203 56.0663 146.984 55.1777C147.92 54.7113 148.732 54.2612 149.444 53.5495C149.775 53.2199 150.079 52.7996 150.331 52.3911C150.519 52.0857 150.813 51.2243 151.071 51.0871C151.083 50.5633 152.954 47.9274 152.954 47.1587V46.5664C152.954 45.2477 151.956 44.465 151.273 43.7813C150.619 43.1271 149.784 42.0457 148.544 42.0457H148.006C146.721 42.0457 145.576 43.2299 144.886 43.2299C144.719 43.4801 142.614 44.3735 142.109 44.7027C140.95 45.4602 140.782 45.8166 140.056 46.9535C139.94 47.1345 139.821 47.4278 139.686 47.6598C139.538 47.9142 139.45 48.1055 139.332 48.3814C139.182 48.731 138.801 49.4884 138.605 49.807C138.011 50.773 137.762 51.6412 136.968 52.4742C136.058 53.4278 128.449 60.7635 128.375 61.0435C128.054 61.0167 126.56 59.2857 126.201 58.9671C125.702 58.5249 124.341 57.3071 124.349 56.5164L124.238 56.3607L124.179 55.7155L124.198 55.1796L124.341 53.6704V52.4863C124.341 50.1301 122.855 47.0298 121.693 45.8253C120.774 44.8732 120.327 44.4102 119.222 43.6161C118.895 43.3814 118.129 42.9638 117.743 42.7816C117.379 42.61 117.302 42.5726 116.876 42.4653C116.72 42.4263 116.123 42.2612 116.058 42.1005L114.176 41.8307C114.079 41.7653 114.081 41.723 113.96 41.723H111.97C111.669 41.723 111.64 41.8307 111.217 41.8307Z" fill="#e11d48"/>
</g>
</svg>