<svg width="163" height="120" viewBox="0 0 163 120" fill="none" xmlns="http://www.w3.org/2000/svg">
<path fill-rule="evenodd" clip-rule="evenodd" d="M31.3862 86.4981C31.3862 85.6159 31.5354 85.9482 31.8036 84.8294H101.885C102.847 84.8294 103.137 85.1199 103.137 86.0807V86.4981C103.137 87.4593 102.847 87.7498 101.885 87.7498H33.0549C32.249 87.7498 31.3862 87.0058 31.3862 86.4981ZM16.786 84.4125C16.786 82.6272 18.0719 81.0751 19.706 81.0751C21.4912 81.0751 23.0433 82.361 23.0433 83.9951C23.0433 85.9425 22.0707 86.9151 20.1233 86.9151H18.8716C17.8178 86.9151 16.786 85.1872 16.786 84.4125ZM115.234 86.9151H114.4C113.427 86.9151 112.314 85.8024 112.314 84.8294V83.1612C112.314 82.1882 113.427 81.0751 114.4 81.0751H115.652C117.35 81.0751 117.595 82.8289 118.155 83.9951C117.376 85.6178 117.761 86.9151 115.234 86.9151ZM31.3862 81.0751C31.3862 80.0988 32.0785 79.4065 33.0549 79.4065H101.885C102.847 79.4065 103.137 79.697 103.137 80.6578V81.0751C103.137 82.0363 102.847 82.3268 101.885 82.3268H32.6379C31.6763 82.3268 31.3862 82.0363 31.3862 81.0751ZM93.5424 74.4009H40.9808C40.0082 74.4009 38.8948 73.2874 38.8948 72.3149V71.4805C38.8948 68.2526 42.9377 63.972 45.5694 63.972H87.7021C94.9715 63.972 98.4895 74.4009 93.5424 74.4009ZM17.203 67.3093V65.6406C17.203 62.1662 21.7586 58.1316 25.5463 58.1316C29.5892 58.1316 34.3062 61.7595 34.3062 65.6406V68.1432C34.3062 71.6773 30.237 75.6522 26.3802 75.6522H25.5463C21.2284 75.6522 17.203 71.6271 17.203 67.3093ZM100.217 66.8919C100.217 62.7169 104.39 58.1316 108.143 58.1316C113.432 58.1316 117.737 61.663 117.737 66.8919C117.737 71.6188 113.687 75.6522 108.977 75.6522C104.269 75.6522 100.217 71.5994 100.217 66.8919ZM8.85967 86.4981C8.85967 90.0857 10.4535 92.7558 13.866 92.7558H119.823C122.675 92.7558 125.663 90.9189 125.663 88.1668V68.9776C125.663 60.8879 117.675 51.8744 110.646 51.8744H25.9632C17.3784 51.8744 8.85967 60.084 8.85967 68.9776V86.4981Z" fill="#FEFEFE"/>
<path d="M115.123 87.2812C116.906 87.2812 118.351 85.836 118.351 84.0532C118.351 82.2705 116.906 80.8253 115.123 80.8253C113.34 80.8253 111.895 82.2705 111.895 84.0532C111.895 85.836 113.34 87.2812 115.123 87.2812Z" fill="#858585" stroke="#858585" stroke-width="0.288"/>
<path fill-rule="evenodd" clip-rule="evenodd" d="M23.0433 48.954H111.48C111.358 47.4881 106.553 38.8612 105.566 37.3478C103.891 34.7841 98.6073 30.1822 94.7937 30.1822H41.8151C36.478 30.1822 31.6703 33.3258 29.5352 36.6741C28.5441 38.2285 23.139 47.8014 23.0433 48.954Z" fill="#FEFEFE"/>
<path fill-rule="evenodd" clip-rule="evenodd" d="M17.1502 41.0004H20.8673C22.3654 37.9862 25.0222 33.2685 25.8022 32.223C28.1582 29.0661 34.496 24.8758 40.385 24.8758H94.9631C101.842 25.1394 107.029 31.029 108.877 33.0068C109.661 34.0337 112.625 38.5319 114.275 41.4899H117.252C117.116 40.1079 111.815 31.9735 110.726 30.5467C108.878 28.1296 103.501 22.5103 95.1203 22.5103H39.434C33.5451 22.5103 26.6692 26.265 24.3139 29.4219C23.2199 30.8874 17.2557 39.9135 17.1502 41.0004Z" fill="#e11d48"/>
<path fill-rule="evenodd" clip-rule="evenodd" d="M12.197 100.264V95.6753H27.2149L27.1599 100.038C27.1458 101.178 26.801 101.516 25.1289 101.516H13.4487C12.4875 101.516 12.197 101.226 12.197 100.264ZM107.308 99.0127V95.6753H122.743V99.847C122.743 100.824 122.051 101.516 121.074 101.516H108.977C107.695 101.516 107.308 100.294 107.308 99.0127ZM8.85967 86.4981V68.9776C8.85967 60.084 17.3784 51.8744 25.9632 51.8744H110.646C117.675 51.8744 125.663 60.8879 125.663 68.9776V88.1668C125.663 90.9189 122.675 92.7558 119.823 92.7558H13.866C10.4535 92.7558 8.85967 90.0857 8.85967 86.4981ZM23.0433 48.954C23.139 47.8015 28.5441 38.2285 29.5352 36.6741C31.6702 33.3258 36.478 30.1822 41.8151 30.1822H94.7937C98.6073 30.1822 103.891 34.7841 105.566 37.3478C106.553 38.8612 111.358 47.4882 111.48 48.954H23.0433ZM121.074 43.5311C121.074 42.5547 121.767 41.8628 122.743 41.8628H129.834C130.811 41.8628 131.503 42.5547 131.503 43.5311V47.7027H121.074V43.5311ZM3.01974 43.9484C2.97873 41.8947 5.86983 42.0773 8.8365 42.1541C11.2951 42.2179 13.8117 41.6965 13.8292 43.7836L13.866 48.1201H4.27105C3.31026 48.1201 3.01974 47.8299 3.01974 46.8684V43.9484ZM130.669 51.04C133.656 51.1657 134.876 49.8537 134.841 47.7027V43.9484C134.823 39.8083 133.272 38.5076 128.166 38.5255H123.578C119.645 38.5243 117.534 39.7734 117.615 43.6245L117.72 48.5807L114.832 48.5701C114.388 46.7252 108.568 36.3544 107.399 34.6804C104.903 31.1042 99.505 27.2622 93.5424 27.2622H40.9808C34.9092 27.2622 29.7012 31.176 27.2058 34.7621C26.0806 36.3787 20.3466 46.4662 19.9122 48.0946L16.7776 48.171C16.7871 44.7398 17.5808 38.3945 12.197 38.9424H5.52273C2.15731 38.9424 0.0997772 40.5283 0.0997772 43.9484V47.7027C0.0997772 49.2274 1.25083 51.04 2.60277 51.04H13.4487L16.723 50.9823C10.9578 56.1068 5.94008 58.6569 5.94008 69.8119V89.0011C5.94008 91.0852 7.96268 93.0842 8.85967 94.424C8.52472 100.293 7.84078 104.816 13.866 104.436H25.9632C28.072 104.436 30.1349 102.931 30.1349 100.682V95.6753H104.388V101.099C104.388 102.858 106.897 104.436 108.977 104.436H121.492C123.551 104.436 124.827 102.764 125.663 101.516V94.424C126.643 92.9604 128.583 91.3913 128.583 89.0011V67.3093C128.583 58.7279 122.191 54.9109 117.737 51.04L123.162 51.0047L130.669 51.04Z" fill="#858585"/>
<path fill-rule="evenodd" clip-rule="evenodd" d="M103.554 66.8919V67.7263C103.554 70.0948 106.419 72.7318 108.143 72.7318H108.56C111.567 72.7318 114.4 70.6314 114.4 67.7263V66.8919C114.4 63.9947 112.632 61.469 109.811 61.469H108.143C105.498 61.469 103.554 64.1269 103.554 66.8919Z" fill="#FEFEFE"/>
<path fill-rule="evenodd" clip-rule="evenodd" d="M42.2321 71.4805H92.7081C92.0918 68.8344 90.9669 67.3093 87.7021 67.3093H45.9868C43.458 67.3093 42.4292 69.1146 42.2321 71.4805Z" fill="#FEFEFE"/>
<path fill-rule="evenodd" clip-rule="evenodd" d="M42.2321 71.4805C42.4292 69.1146 43.458 67.3093 45.9868 67.3093H87.7021C90.9669 67.3093 92.0917 68.8344 92.7081 71.4805H42.2321ZM93.5424 74.4009C98.4895 74.4009 94.9715 63.972 87.7021 63.972H45.5694C42.9377 63.972 38.8948 68.2526 38.8948 71.4805V72.3149C38.8948 73.2874 40.0082 74.4009 40.9808 74.4009H93.5424Z" fill="#858585"/>
<path fill-rule="evenodd" clip-rule="evenodd" d="M103.513 80.6578C103.513 79.697 103.222 79.4065 102.261 79.4065H101.308H33.4308H32.4776C31.5165 79.4065 31.2263 79.697 31.2263 80.6578V81.0751C31.2263 82.0363 31.5165 82.3268 32.4776 82.3268H33.0138H101.725H102.261C103.222 82.3268 103.513 82.0363 103.513 81.0751V80.6578ZM102.307 84.8294H102.559L102.562 84.8401C103.285 84.9023 103.513 85.2285 103.513 86.0807V86.4981C103.513 87.4592 103.222 87.7498 102.261 87.7498H101.308H33.4308H32.4776C31.5165 87.7498 31.2263 87.4592 31.2263 86.4981V86.0807C31.2263 85.2289 31.4549 84.9031 32.1769 84.8404L32.1795 84.8294H32.4336H102.261H102.307Z" fill="#858585"/>
<path fill-rule="evenodd" clip-rule="evenodd" d="M3.4352 69.5229C4.17231 60.2249 6.74821 56.8443 9.27703 53.96H6.35706C3.04101 53.96 0.166615 63.3362 0.0997772 69.3945V88.1668C0.0997772 91.46 0.550171 90.797 3.41697 90.1521L3.4352 69.5229Z" fill="#858585"/>
<path fill-rule="evenodd" clip-rule="evenodd" d="M131.596 69.5229C130.859 60.2249 128.283 56.8443 125.754 53.96H128.674C131.99 53.96 134.865 63.3362 134.932 69.3945V88.1668C134.932 91.46 134.481 90.797 131.614 90.1521L131.596 69.5229Z" fill="#858585"/>
<path fill-rule="evenodd" clip-rule="evenodd" d="M107.308 99.0127C107.308 100.294 107.695 101.516 108.977 101.516H121.074C122.051 101.516 122.743 100.824 122.743 99.847V95.6754H107.308V99.0127Z" fill="#FEFEFE"/>
<path d="M19.8172 87.2812C21.6 87.2812 23.0452 85.836 23.0452 84.0532C23.0452 82.2705 21.6 80.8253 19.8172 80.8253C18.0345 80.8253 16.5893 82.2705 16.5893 84.0532C16.5893 85.836 18.0345 87.2812 19.8172 87.2812Z" fill="#858585" stroke="#858585" stroke-width="0.288"/>
<path d="M25.7548 75.7813C30.6642 75.7813 34.6441 71.8014 34.6441 66.8919C34.6441 61.9825 30.6642 58.0025 25.7548 58.0025C20.8453 58.0025 16.8654 61.9825 16.8654 66.8919C16.8654 71.8014 20.8453 75.7813 25.7548 75.7813Z" fill="#858585" stroke="#858585" stroke-width="0.288"/>
<path d="M25.7548 72.7531C28.9918 72.7531 31.6159 70.129 31.6159 66.8919C31.6159 63.6549 28.9918 61.0307 25.7548 61.0307C22.5177 61.0307 19.8936 63.6549 19.8936 66.8919C19.8936 70.129 22.5177 72.7531 25.7548 72.7531Z" fill="white" stroke="#858585" stroke-width="0.288"/>
<path d="M108.783 75.7813C113.692 75.7813 117.672 71.8014 117.672 66.8919C117.672 61.9825 113.692 58.0025 108.783 58.0025C103.873 58.0025 99.8931 61.9825 99.8931 66.8919C99.8931 71.8014 103.873 75.7813 108.783 75.7813Z" fill="#858585" stroke="#858585" stroke-width="0.288"/>
<path d="M108.783 72.7531C112.02 72.7531 114.644 70.129 114.644 66.8919C114.644 63.6549 112.02 61.0307 108.783 61.0307C105.545 61.0307 102.921 63.6549 102.921 66.8919C102.921 70.129 105.545 72.7531 108.783 72.7531Z" fill="white" stroke="#858585" stroke-width="0.288"/>
<path fill-rule="evenodd" clip-rule="evenodd" d="M23.0433 48.9544H111.48C111.358 47.4885 106.553 38.8616 105.566 37.3482C103.891 34.7845 98.6073 30.1826 94.7937 30.1826H41.8151C36.478 30.1826 31.6703 33.3262 29.5352 36.6745C28.5441 38.2289 23.139 47.8018 23.0433 48.9544Z" fill="#FEFEFE"/>
<path d="M121.387 61.6897C137.7 61.6897 150.925 48.4648 150.925 32.151C150.925 15.8373 137.7 2.61243 121.387 2.61243C105.073 2.61243 91.8481 15.8373 91.8481 32.151C91.8481 48.4648 105.073 61.6897 121.387 61.6897Z" fill="white"/>
<path d="M121.387 0.637329L121.389 0.645304C130.095 0.646064 137.973 4.17212 143.67 9.86964C149.366 15.5664 152.891 23.4426 152.892 32.1451H152.9V32.1508L152.892 32.1539C152.891 40.8587 149.366 48.7368 143.668 54.4343C137.971 60.1307 130.095 63.6552 121.392 63.6568V63.6647H121.387L121.384 63.6568C112.679 63.656 104.801 60.1307 99.1032 54.4324C93.4069 48.7357 89.8823 40.8598 89.8808 32.1569H89.8728V32.1508L89.8808 32.1482C89.8816 23.4434 93.4069 15.5653 99.1051 9.86812C104.802 4.17136 112.678 0.646823 121.381 0.645304V0.637329H121.387ZM121.389 4.5796V4.5872H121.381V4.5796C113.779 4.58074 106.889 7.66932 101.898 12.6605C96.9048 17.6528 93.8155 24.5443 93.8151 32.1482H93.8231V32.1569H93.8151C93.8162 39.7589 96.9052 46.6485 101.896 51.6401C106.888 56.6331 113.78 59.7221 121.384 59.7225V59.7149H121.392V59.7225C128.994 59.7213 135.884 56.6327 140.876 51.642C145.869 46.6493 148.958 39.7578 148.958 32.1539H148.95V32.1451H148.958C148.957 24.5435 145.868 17.6536 140.877 12.662C135.885 7.66932 128.993 4.57998 121.389 4.5796Z" fill="#e11d48"/>
<g class="icon-animation-4">
<path fill-rule="evenodd" clip-rule="evenodd" d="M117.247 10.5061L117.047 11.2368L116.846 11.7236L116.646 12.4543L116.446 13.1849L116.246 13.9152L116.046 14.4024L115.845 15.1331L115.645 15.8634L115.445 16.594L115.245 17.0809L115.045 17.8115L114.844 18.0549L114.244 18.2988L113.643 18.5422L113.243 18.7856L112.642 19.029L112.041 19.2728L111.441 19.5163L111.04 19.7597L110.44 20.0031L109.839 20.2465L109.239 20.4903L108.838 20.7338L108.438 20.9772V21.2206L108.638 21.4644L109.038 21.7078L109.639 21.9513L110.24 22.1947L110.64 22.4385L111.241 22.6819L111.841 22.9254L112.442 23.1688L112.842 23.4126L113.443 23.656L114.043 23.8994L114.644 24.1429L115.045 24.3867L115.245 25.1169L115.445 25.8476L115.645 26.5783L115.845 27.0651L116.046 27.7958L116.246 28.5264L116.446 29.2567L116.646 29.7439L116.846 30.4742L117.047 31.2049L117.247 31.9355L117.447 32.4224H117.847L118.048 31.6921L118.248 30.9614L118.448 30.4742L118.648 29.7439L118.848 29.0133L119.049 28.2826L119.249 27.7958L119.449 27.0651L119.649 26.3344L119.849 25.6042L120.05 25.1169L120.25 24.3867L120.65 24.1429L121.251 23.8994L121.852 23.656L122.452 23.4126L122.853 23.1688L123.453 22.9254L124.054 22.6819L124.655 22.4385L125.055 22.1947L125.656 21.9513L126.256 21.7078L126.857 21.4644V20.9772L126.456 20.7338L125.856 20.4903L125.455 20.2465L124.855 20.0031L124.254 19.7597L123.654 19.5163L123.253 19.2728L122.652 19.029L122.052 18.7856L121.451 18.5422L121.051 18.2988L120.45 18.0549H120.05V17.3247L119.849 16.594L119.649 15.8634L119.449 15.3765L119.249 14.6459L119.049 13.9152L118.848 13.1849L118.648 12.6977L118.448 11.967L118.248 11.2368L118.048 10.5061L117.847 10.0193L117.647 9.77545H117.447L117.247 10.5061Z" fill="#e11d48"/>
<path fill-rule="evenodd" clip-rule="evenodd" d="M124.165 36.5249L124.047 36.9537L123.93 37.2396L123.812 37.6684L123.695 38.0971L123.578 38.5259L123.46 38.8118L123.342 39.2406L123.225 39.6693L123.107 40.0981L122.99 40.384L122.872 40.8128L122.755 40.9556L122.402 41.0987L122.05 41.2415L121.815 41.3843L121.462 41.5275L121.11 41.6703L120.757 41.813L120.522 41.9562L120.17 42.099L119.817 42.2418L119.465 42.385L119.23 42.5278L118.995 42.6709V42.8137L119.112 42.9565L119.347 43.0997L119.7 43.2425L120.052 43.3852L120.287 43.5284L120.64 43.6712L120.992 43.814L121.345 43.9572L121.58 44.1L121.932 44.2427L122.285 44.3859L122.637 44.5287L122.872 44.6715L122.99 45.1006L123.107 45.5294L123.225 45.9581L123.342 46.2437L123.46 46.6724L123.578 47.1012L123.695 47.5303L123.812 47.8159L123.93 48.2446L124.047 48.6734L124.165 49.1021L124.282 49.3881H124.517L124.635 48.9593L124.753 48.5306L124.87 48.2446L124.988 47.8159L125.105 47.3871L125.223 46.9584L125.34 46.6724L125.457 46.2437L125.575 45.8149L125.692 45.3862L125.81 45.1006L125.928 44.6715L126.163 44.5287L126.515 44.3859L126.868 44.2427L127.22 44.1L127.455 43.9572L127.808 43.814L128.16 43.6712L128.513 43.5284L128.748 43.3852L129.1 43.2425L129.453 43.0997L129.805 42.9565V42.6709L129.57 42.5278L129.218 42.385L128.983 42.2418L128.63 42.099L128.278 41.9562L127.925 41.813L127.69 41.6703L127.338 41.5275L126.985 41.3843L126.633 41.2415L126.398 41.0987L126.045 40.9556H125.81V40.5268L125.692 40.0981L125.575 39.6693L125.457 39.3834L125.34 38.9546L125.223 38.5259L125.105 38.0971L124.988 37.8112L124.87 37.3824L124.753 36.9537L124.635 36.5249L124.517 36.2393L124.4 36.0962H124.282L124.165 36.5249Z" fill="#e11d48"/>
<path fill-rule="evenodd" clip-rule="evenodd" d="M132.739 25.8803L132.673 26.1225L132.606 26.2839L132.54 26.5266L132.473 26.7689L132.407 27.0112L132.34 27.1726L132.274 27.4152L132.208 27.6575L132.141 27.8998L132.075 28.0616L132.009 28.3039L131.942 28.3844L131.743 28.4653L131.543 28.5462L131.411 28.6271L131.211 28.7076L131.012 28.7884L130.813 28.8693L130.68 28.9502L130.481 29.0307L130.281 29.1116L130.082 29.1925L129.949 29.2734L129.817 29.3539V29.4348L129.883 29.5157L130.016 29.5962L130.215 29.6771L130.414 29.758L130.547 29.8389L130.747 29.9194L130.946 30.0003L131.145 30.0811L131.278 30.162L131.477 30.2425L131.676 30.3234L131.876 30.4043L132.009 30.4852L132.075 30.7275L132.141 30.9698L132.208 31.2121L132.274 31.3738L132.34 31.6161L132.407 31.8584L132.473 32.1007L132.54 32.2625L132.606 32.5048L132.673 32.7471L132.739 32.9893L132.806 33.1511H132.938L133.005 32.9088L133.071 32.6662L133.138 32.5048L133.204 32.2625L133.27 32.0202L133.337 31.7775L133.403 31.6161L133.47 31.3738L133.536 31.1312L133.602 30.8889L133.669 30.7275L133.735 30.4852L133.868 30.4043L134.068 30.3234L134.267 30.2425L134.466 30.162L134.599 30.0811L134.798 30.0003L134.997 29.9194L135.197 29.8389L135.33 29.758L135.529 29.6771L135.728 29.5962L135.927 29.5157V29.3539L135.794 29.2734L135.595 29.1925L135.462 29.1116L135.263 29.0307L135.064 28.9502L134.865 28.8693L134.732 28.7884L134.532 28.7076L134.333 28.6271L134.134 28.5462L134.001 28.4653L133.802 28.3844H133.669V28.1421L133.602 27.8998L133.536 27.6575L133.47 27.4957L133.403 27.2535L133.337 27.0112L133.27 26.7689L133.204 26.6071L133.138 26.3648L133.071 26.1225L133.005 25.8803L132.938 25.7185L132.872 25.638H132.806L132.739 25.8803Z" fill="#e11d48"/>
</g>
</svg>