<svg width="163" height="120" viewBox="0 0 163 120" fill="none" xmlns="http://www.w3.org/2000/svg">
<g class="icon-animation-13">
<path d="M115.042 33.7829C115.215 33.7587 115.395 33.7259 115.568 33.7168C115.714 33.7028 115.886 33.6896 116.087 33.6794L116.086 33.6722L116.106 33.6711L116.106 33.6782C116.902 33.6382 117.667 33.6809 118.393 33.798C119.122 33.9152 119.843 34.1136 120.544 34.382L120.551 34.3816C124.076 35.7335 126.749 38.874 127.398 42.7442C127.703 44.9563 124.384 45.6582 123.85 43.338C123.416 40.7433 121.624 38.6377 119.261 37.7318C118.818 37.5628 118.34 37.4317 117.832 37.3497C117.318 37.2669 116.802 37.2352 116.293 37.2609L116.294 37.268L116.274 37.2688L116.274 37.2616C116.18 37.2665 116.059 37.2763 115.917 37.29L115.91 37.2911C115.785 37.3039 115.671 37.3308 115.566 37.3342C112.657 37.4238 112.928 34.08 115.042 33.7829Z" fill="#e11d48"/>
<path d="M152.172 36.621L152.138 36.4732C151.603 34.1079 150.844 31.844 149.887 29.7052C148.926 27.5565 147.762 25.5182 146.42 23.6152C139.545 13.8633 128.027 7.69963 115.271 8.18908C113.411 8.02316 113.012 4.99916 115.126 4.6042C129.148 4.06637 141.804 10.8355 149.355 21.5459C150.827 23.6326 152.106 25.872 153.163 28.238C154.226 30.6134 155.064 33.1049 155.648 35.6836L155.681 35.8318C155.336 37.2616 153.431 38.0734 152.172 36.621Z" fill="#e11d48"/>
<path d="M135.05 40.498C134.993 39.8551 134.876 39.2027 134.709 38.5477L134.716 38.5459C133.666 34.447 130.581 31.0851 127.05 28.7977C123.511 26.505 119.607 25.3202 116.894 25.562C116.577 25.5904 116.285 25.638 116.022 25.7049C114.065 25.6206 113.455 22.6953 115.136 22.2289C115.595 22.1117 116.078 22.0308 116.58 21.9862C120.035 21.6778 124.817 23.066 129.006 25.779C133.203 28.4984 136.892 32.578 138.192 37.6611L138.199 37.6607C138.401 38.4533 138.547 39.295 138.626 40.1843C138.633 41.6122 135.591 42.2487 135.05 40.498Z" fill="#e11d48"/>
</g>
<path fill-rule="evenodd" clip-rule="evenodd" d="M37.6811 97.1622C37.6811 96.2842 37.8297 96.6149 38.0965 95.5015H107.845C108.802 95.5015 109.09 95.7906 109.09 96.7468V97.1622C109.09 98.1188 108.802 98.4079 107.845 98.4079H39.3419C38.5398 98.4079 37.6811 97.6675 37.6811 97.1622ZM23.1504 95.0865C23.1504 93.3097 24.4301 91.765 26.0564 91.765C27.8332 91.765 29.3779 93.0448 29.3779 94.6711C29.3779 96.6093 28.41 97.5772 26.4718 97.5772H25.2261C24.1773 97.5772 23.1504 95.8575 23.1504 95.0865ZM121.13 97.5772H120.3C119.332 97.5772 118.224 96.4698 118.224 95.5015V93.8411C118.224 92.8728 119.332 91.765 120.3 91.765H121.546C123.236 91.765 123.48 93.5104 124.037 94.6711C123.262 96.2861 123.645 97.5772 121.13 97.5772ZM37.6811 91.765C37.6811 90.7933 38.3701 90.1043 39.3419 90.1043H107.845C108.802 90.1043 109.09 90.3935 109.09 91.3497V91.765C109.09 92.7216 108.802 93.0108 107.845 93.0108H38.9269C37.9699 93.0108 37.6811 92.7216 37.6811 91.765ZM99.5418 85.1225H47.2301C46.2622 85.1225 45.154 84.0144 45.154 83.0464V82.2161C45.154 79.0035 49.1777 74.7432 51.7969 74.7432H93.7293C100.964 74.7432 104.465 85.1225 99.5418 85.1225ZM23.5654 78.0646V76.4039C23.5654 72.946 28.0993 68.9307 31.869 68.9307C35.8927 68.9307 40.5872 72.5412 40.5872 76.4039V78.8946C40.5872 82.4119 36.5375 86.3679 32.699 86.3679H31.869C27.5717 86.3679 23.5654 82.362 23.5654 78.0646ZM106.185 77.6493C106.185 73.4941 110.338 68.9307 114.073 68.9307C119.336 68.9307 123.622 72.4452 123.622 77.6493C123.622 82.3536 119.591 86.3679 114.903 86.3679C110.218 86.3679 106.185 82.3344 106.185 77.6493ZM15.2617 97.1622C15.2617 100.733 16.848 103.39 20.2443 103.39H125.697C128.536 103.39 131.51 101.562 131.51 98.8229V79.725C131.51 71.6738 123.56 62.7031 116.564 62.7031H32.284C23.74 62.7031 15.2617 70.8737 15.2617 79.725V97.1622Z" fill="#FEFEFE"/>
<path fill-rule="evenodd" clip-rule="evenodd" d="M121.02 91.5164C122.794 91.5164 124.232 92.9548 124.232 94.729C124.232 96.5031 122.794 97.9416 121.02 97.9416C119.246 97.9416 117.807 96.5031 117.807 94.729C117.807 92.9548 119.246 91.5164 121.02 91.5164Z" fill="#858585" stroke="#858585" stroke-width="0.288"/>
<path fill-rule="evenodd" clip-rule="evenodd" d="M29.3779 59.7967H117.394C117.337 59.1145 116.261 56.8755 115.031 54.5299C114.607 54.6954 114.16 54.7831 113.697 54.7831C111.012 54.7831 108.835 51.8018 108.835 48.1255C108.835 47.2328 108.963 46.3816 109.196 45.6034C106.839 43.3746 103.453 41.1141 100.787 41.1141H48.0605C42.7487 41.1141 37.9638 44.2428 35.839 47.5752C34.8525 49.1221 29.4731 58.6496 29.3779 59.7967Z" fill="#FEFEFE"/>

<path class="icon-animation-12" fill-rule="evenodd" clip-rule="evenodd" d="M18.5832 110.863V106.296H33.5297L33.4749 110.637C33.4609 111.772 33.1177 112.108 31.4536 112.108H19.8289C18.8723 112.108 18.5832 111.82 18.5832 110.863ZM108.347 42.2714C107.674 46.2773 112.74 39.6246 112.805 44.2874C112.147 46.9236 111.383 52.0672 111.5 52.5661C114.128 51.9802 116.33 44.2413 118.651 52.2327C119.148 54.6939 120.141 56.9692 120.731 59.4146L123.604 59.4251L123.5 54.4925C123.42 50.6597 125.52 49.4166 129.434 49.4177H134.001C139.082 49.3999 140.626 50.6944 140.644 54.8149V58.5513C140.679 60.692 139.465 61.9979 136.492 61.8728L129.02 61.8376L123.622 61.8728C128.054 65.7252 134.416 69.524 134.416 78.0646V99.6533C134.416 102.032 132.485 103.594 131.51 105.05V112.108C130.678 113.351 129.408 115.015 127.358 115.015H114.903C112.833 115.015 110.336 113.444 110.336 111.693V106.296H36.4358V111.278C36.4358 113.517 34.3827 115.015 32.284 115.015H20.2443C14.2477 115.393 14.9284 110.891 15.2617 105.05C14.369 103.717 12.356 101.728 12.356 99.6533V80.5554C12.356 69.4534 17.3499 66.9154 23.0876 61.8153L19.8289 61.8728H9.03458C7.68907 61.8728 6.5435 60.0688 6.5435 58.5513V54.8149C6.5435 51.411 8.59124 49.8327 11.9407 49.8327H18.5832C23.9414 49.2873 23.1515 55.6025 23.142 59.0173L26.2617 58.9414C26.694 57.3207 32.4008 47.2811 33.5206 45.6722C36.0042 42.1032 41.1874 38.208 47.2301 38.208H99.5418C103.905 38.208 108.973 38.5421 108.347 42.2714ZM115.135 53.5593C111.592 57.5928 109.61 55.9782 108.71 54.847C107.63 53.418 108.023 50.7269 108.686 46.1813C108.348 45.2005 105.312 48.1104 105.59 44.7164C105.868 41.3223 102.574 41.1141 100.787 41.1141H48.0605C42.7487 41.1141 37.9638 44.2428 35.839 47.5752C34.8525 49.1222 29.4731 58.6496 29.3779 59.7967H117.394C117.341 59.1674 116.243 55.7004 115.135 53.5593ZM113.242 109.617V106.296H128.604V110.448C128.604 111.42 127.915 112.108 126.943 112.108H114.903C113.627 112.108 113.242 110.892 113.242 109.617ZM15.2617 97.1622V79.725C15.2617 70.8737 23.74 62.7031 32.284 62.7031H116.564C123.56 62.7031 131.51 71.6738 131.51 79.725V98.8229C131.51 101.562 128.536 103.39 125.697 103.39H20.2443C16.848 103.39 15.2617 100.733 15.2617 97.1622ZM126.943 54.3995C126.943 53.4278 127.632 52.7392 128.604 52.7392H135.661C136.633 52.7392 137.322 53.4278 137.322 54.3995V58.5513H126.943V54.3995ZM9.44957 54.8149C9.40876 52.7709 12.2861 52.9527 15.2387 53.029C17.6855 53.0925 20.1902 52.5736 20.2076 54.6508L20.2443 58.9667H10.6949C9.73871 58.9667 9.44957 58.6779 9.44957 57.721V54.8149Z" fill="#858585"/>
<path fill-rule="evenodd" clip-rule="evenodd" d="M109.506 77.6492V78.4796C109.506 80.8369 112.357 83.4614 114.073 83.4614H114.488C117.481 83.4614 120.3 81.3709 120.3 78.4796V77.6492C120.3 74.7658 118.541 72.2521 115.733 72.2521H114.073C111.441 72.2521 109.506 74.8974 109.506 77.6492Z" fill="#FEFEFE"/>
<path fill-rule="evenodd" clip-rule="evenodd" d="M48.4755 82.2161H98.7114C98.098 79.5825 96.9785 78.0646 93.7293 78.0646H52.2123C49.6955 78.0646 48.6716 79.8614 48.4755 82.2161Z" fill="#FEFEFE"/>
<path fill-rule="evenodd" clip-rule="evenodd" d="M48.4755 82.2161C48.6716 79.8615 49.6955 78.0647 52.2123 78.0647H93.7293C96.9785 78.0647 98.098 79.5825 98.7114 82.2161H48.4755ZM99.5418 85.1226C104.465 85.1226 100.964 74.7432 93.7293 74.7432H51.7969C49.1777 74.7432 45.154 79.0035 45.154 82.2161V83.0465C45.154 84.0144 46.2622 85.1226 47.2301 85.1226H99.5418Z" fill="#858585"/>
<path fill-rule="evenodd" clip-rule="evenodd" d="M109.465 91.3497C109.465 90.3934 109.176 90.1043 108.219 90.1043H107.271H39.716H38.7674C37.8108 90.1043 37.522 90.3934 37.522 91.3497V91.765C37.522 92.7216 37.8108 93.0108 38.7674 93.0108H39.301H107.686H108.219C109.176 93.0108 109.465 92.7216 109.465 91.765V91.3497ZM108.264 95.5015H108.516L108.519 95.5121C109.238 95.574 109.465 95.8987 109.465 96.7468V97.1622C109.465 98.1188 109.176 98.4079 108.219 98.4079H107.271H39.716H38.7674C37.8108 98.4079 37.522 98.1188 37.522 97.1622V96.7468C37.522 95.8991 37.7495 95.5748 38.468 95.5124L38.4707 95.5015H38.7235H108.219H108.264Z" fill="#858585"/>
<path fill-rule="evenodd" clip-rule="evenodd" d="M9.86305 80.2677C10.5967 71.014 13.1603 67.6494 15.6771 64.7789H12.771C9.47074 64.7789 6.61001 74.1105 6.5435 80.14V98.823C6.5435 102.101 6.99175 101.441 9.84491 100.799L9.86305 80.2677Z" fill="#858585"/>
<path fill-rule="evenodd" clip-rule="evenodd" d="M137.415 80.2677C136.681 71.014 134.117 67.6494 131.601 64.7789H134.507C137.807 64.7789 140.668 74.1105 140.734 80.14V98.823C140.734 102.101 140.286 101.441 137.433 100.799L137.415 80.2677Z" fill="#858585"/>
<path fill-rule="evenodd" clip-rule="evenodd" d="M113.242 109.617C113.242 110.892 113.627 112.108 114.903 112.108H126.943C127.915 112.108 128.604 111.42 128.604 110.448V106.296H113.242V109.617Z" fill="#FEFEFE"/>
<path fill-rule="evenodd" clip-rule="evenodd" d="M26.1672 91.5164C27.9413 91.5164 29.3798 92.9548 29.3798 94.729C29.3798 96.5031 27.9413 97.9416 26.1672 97.9416C24.3931 97.9416 22.9546 96.5031 22.9546 94.729C22.9546 92.9548 24.3931 91.5164 26.1672 91.5164Z" fill="#858585" stroke="#858585" stroke-width="0.288"/>
<path fill-rule="evenodd" clip-rule="evenodd" d="M32.0765 68.8021C36.9619 68.8021 40.9236 72.7638 40.9236 77.6492C40.9236 82.5347 36.9619 86.4964 32.0765 86.4964C27.1911 86.4964 23.2294 82.5347 23.2294 77.6492C23.2294 72.7638 27.1911 68.8021 32.0765 68.8021Z" fill="#858585" stroke="#858585" stroke-width="0.288"/>
<path fill-rule="evenodd" clip-rule="evenodd" d="M32.0765 71.8159C35.2978 71.8159 37.9098 74.4279 37.9098 77.6492C37.9098 80.8705 35.2978 83.4826 32.0765 83.4826C28.8552 83.4826 26.2431 80.8705 26.2431 77.6492C26.2431 74.4279 28.8552 71.8159 32.0765 71.8159Z" fill="white" stroke="#858585" stroke-width="0.288"/>
<path fill-rule="evenodd" clip-rule="evenodd" d="M114.709 68.8021C119.595 68.8021 123.557 72.7638 123.557 77.6492C123.557 82.5347 119.595 86.4964 114.709 86.4964C109.824 86.4964 105.862 82.5347 105.862 77.6492C105.862 72.7638 109.824 68.8021 114.709 68.8021Z" fill="#858585" stroke="#858585" stroke-width="0.288"/>
<path fill-rule="evenodd" clip-rule="evenodd" d="M114.709 71.8159C117.931 71.8159 120.543 74.4279 120.543 77.6492C120.543 80.8705 117.931 83.4826 114.709 83.4826C111.488 83.4826 108.876 80.8705 108.876 77.6492C108.876 74.4279 111.488 71.8159 114.709 71.8159Z" fill="white" stroke="#858585" stroke-width="0.288"/>
</svg>