<svg width="163" height="120" viewBox="0 0 163 120" fill="none" xmlns="http://www.w3.org/2000/svg">
<path d="M120.967 94.5404H62.6256V98.7802H120.967V94.5404ZM55.3757 73.993C60.4664 73.993 64.5951 78.1221 64.5951 83.2127C64.5951 83.7018 64.5574 84.1826 64.484 84.6512H122.143C121.403 82.1409 120.062 79.5443 117.914 78.2132C117.454 77.9275 116.954 77.7003 116.422 77.5457C115.881 77.3892 115.298 77.3031 114.672 77.3027L114.661 77.3061H68.9314H68.1252L68.0587 76.5014C67.9559 75.2667 65.2853 68.0633 63.6824 63.7425C63.2421 62.555 62.8838 61.5878 62.6472 60.9215L62.6339 60.8848C61.8841 58.7668 61.107 56.6438 60.3292 54.5193C59.2052 51.4492 58.0792 48.3738 56.9968 45.2005C56.14 42.6875 55.276 40.3011 54.4161 37.9272C53.4145 35.1591 52.4175 32.4053 51.4326 29.4497L51.3993 29.3507C49.4774 23.5816 48.3904 20.321 40.6806 20.321L39.0047 20.3244C38.959 20.3244 38.9091 20.3278 38.8577 20.3328C40.1802 25.8735 41.8205 31.4937 43.4574 37.1059C44.5466 40.8393 45.6351 44.5705 46.5955 48.138L46.5982 48.1471C47.1371 50.1506 47.6969 52.0762 48.2596 54.0129C49.076 56.8233 49.8996 59.6584 50.575 62.3724L50.5776 62.3807C50.993 64.0483 51.4745 65.7925 51.9719 67.4827L52.2656 68.4665L52.5574 69.4299L52.5592 69.4386C52.797 70.2127 53.0222 71.071 53.2482 71.9354C53.3133 72.1837 53.3779 72.4309 53.5408 73.0364L53.5431 73.0447C53.6621 73.4876 53.749 73.8429 53.8163 74.126C54.3231 74.0395 54.844 73.993 55.3757 73.993ZM63.6121 87.3615C62.555 89.4558 60.7226 91.0919 58.4923 91.8924C57.2961 92.3705 55.8202 92.6079 53.983 92.3928C51.0939 92.055 48.3772 90.0953 47.0789 87.3782C46.8257 86.8475 46.6212 86.284 46.4833 85.6955C46.4636 85.612 46.4462 85.5281 46.4292 85.443C46.2516 84.7287 46.156 83.9815 46.156 83.2127C46.156 79.5912 48.2472 76.4576 51.2863 74.9499L36.2298 20.719L34.4035 21.1344C34.5158 22.8049 34.995 25.1596 35.4191 27.247C35.5941 28.1076 35.7608 28.9285 35.8877 29.6323C35.9369 29.9025 35.9792 30.1444 36.0113 30.3493V30.353C36.2649 31.959 36.5688 33.7025 36.8727 35.4501C37.1531 37.0651 37.4347 38.6816 37.7374 40.5978C38.2522 43.8558 38.8683 47.2044 39.4847 50.5595C40.1208 54.0212 40.7592 57.4927 41.3015 60.9604L41.3038 60.9736C41.9191 64.9077 42.6735 69.1223 43.4196 73.296C43.9204 76.0955 44.4144 78.875 44.8339 81.3593V81.3695L44.8346 81.3733C44.9095 81.8151 45.0013 82.4001 45.0894 82.9701C45.5361 85.852 45.8884 88.1227 47.5895 89.895C48.5235 90.8678 49.5092 91.7881 50.6967 92.448C51.8593 93.0943 53.2513 93.5097 55.0454 93.5097H55.285C56.9684 93.5097 57.9772 93.0796 58.9296 92.6737C59.9509 92.2379 60.9211 91.8244 62.4684 91.8346C63.9235 91.844 65.3809 91.8452 66.8364 91.8437C68.2934 91.8425 69.7523 91.8376 71.2082 91.8372H71.5653L89.5219 91.8335H107.478C107.804 91.8335 108.637 91.8569 109.7 91.886C111.408 91.9329 113.779 91.9983 116.287 91.9983C120.116 91.9983 123.84 91.9514 123.84 91.7522V91.7435C123.839 91.1388 123.688 89.921 123.414 88.8352C123.222 88.0709 123.053 87.4114 123.037 87.3615H63.6121ZM31.451 20.1279L31.4483 20.1154L31.2983 19.4404L31.9242 19.1396C32.6562 18.7884 33.7081 18.4615 34.8646 18.2037C35.1243 18.1459 35.3492 18.0983 35.5393 18.0613C36.9328 17.7903 38.4446 17.6183 39.7149 17.6175L39.7225 17.6141H41.3987C49.6951 17.6141 51.1317 21.2398 53.2324 26.5425C53.359 26.8615 53.4837 27.1854 53.7766 27.9031C55.6532 32.504 57.5259 38.1264 59.1511 43.0061L59.3768 43.6834C60.5998 47.3537 61.9075 50.9862 63.205 54.5904C63.8596 56.4087 64.5075 58.2082 64.9345 59.4134C65.4225 60.7907 66.0431 62.4072 66.692 64.0982C68.0523 67.6445 69.5395 71.5219 70.3344 74.5958H114.421C116.817 74.5958 118.659 75.3196 120.111 76.4447C121.539 77.5525 122.56 79.0296 123.347 80.5761C123.919 81.6983 125.203 85.1717 125.951 87.9629C126.093 88.4909 126.22 89.0154 126.323 89.5174C126.463 90.1996 126.546 90.802 126.547 91.2677L126.55 91.2733V91.7522C126.55 92.9265 126.022 93.6363 125.204 94.0634C124.757 94.2977 124.232 94.4236 123.677 94.4871V100.611V101.484H122.801H60.7914H59.9153V100.611V95.2675C59.6341 95.3787 59.3386 95.4845 59.0317 95.5835C58.8401 95.6451 58.6775 95.6954 58.5464 95.7324C57.5297 96.0212 56.4057 96.2158 55.2907 96.2166L55.285 96.22H55.0454C52.134 96.22 49.6834 95.1508 47.7887 93.7663C47.4342 93.5067 47.088 93.2258 46.7562 92.9329C46.4315 92.6461 46.1333 92.36 45.8646 92.0795L45.8476 92.061C43.4634 89.5658 43.1331 87.5902 42.5541 84.1278C42.491 83.746 42.4188 83.3208 42.3111 82.7063C41.6939 79.2072 41.0872 75.6495 40.481 72.0938C39.9152 68.7765 39.3494 65.4584 38.7197 61.8769C38.2197 59.0347 37.8992 57.2553 37.581 55.4876C36.6954 50.5667 35.8133 45.6662 35.0566 40.8817L35.0544 40.865C34.7429 38.8967 34.6012 37.9748 34.4542 37.0205C33.583 31.3652 32.6396 25.2439 31.451 20.1381V20.1279Z" fill="#858585"/>
<path d="M55.2472 90.0615C59.0716 90.0615 62.1719 86.9612 62.1719 83.1368C62.1719 79.3124 59.0716 76.2121 55.2472 76.2121C51.4228 76.2121 48.3225 79.3124 48.3225 83.1368C48.3225 86.9612 51.4228 90.0615 55.2472 90.0615Z" fill="white"/>
<path d="M55.2472 86.2212C56.9509 86.2212 58.332 84.8401 58.332 83.1364C58.332 81.4327 56.9509 80.0516 55.2472 80.0516C53.5436 80.0516 52.1625 81.4327 52.1625 83.1364C52.1625 84.8401 53.5436 86.2212 55.2472 86.2212Z" fill="#858585"/>
<path fill-rule="evenodd" clip-rule="evenodd" d="M113.4 68.8717C102.498 68.5236 101.113 77.6637 101.34 84.1871C101.491 88.5086 100.356 99.2414 107.574 100.133L123.398 100.126C132.203 100.122 131.086 83.9978 129.911 78.2147C127.788 67.7575 124.302 69.2198 113.4 68.8717Z" fill="white"/>
<path d="M112.463 68.7893C107.784 68.6276 105.166 70.6284 103.751 73.4124C102.231 76.4021 101.972 80.3176 102.078 83.5945L102.08 83.6708V83.6761C102.097 84.2688 102.095 84.9835 102.092 85.7696C102.076 90.5594 102.052 98.4348 106.896 99.1578L122.331 99.151C123.614 99.1503 124.61 98.6412 125.372 97.7915C126.374 96.6739 127.042 94.9633 127.467 92.9855C127.92 90.8784 128.089 88.5124 128.088 86.2209C128.087 82.8204 127.713 79.5772 127.333 77.5563C125.725 68.9908 123.189 68.9568 116.205 68.8664C115.054 68.8521 113.796 68.8347 112.463 68.7893ZM116.717 50.5312L111.773 50.5112L111.764 52.845C112.193 52.8828 112.251 52.9845 112.724 52.9867L115.745 52.9988C116.219 53.0011 116.278 52.8994 116.707 52.8658L116.717 50.5312ZM106.134 52.822L103.653 55.0088C103.313 55.2348 101.611 56.5112 101.313 56.51L100.763 56.5074C99.8631 56.504 99.3933 55.7689 99.397 54.8542L99.3978 54.7166C99.4012 53.8118 106.18 48.6868 106.248 46.1099L101.358 45.5244C100.501 45.521 99.8491 45.125 99.8529 44.2825L99.8714 39.7512C99.8789 37.9234 103.415 38.8513 105.084 38.6646C106.973 38.4529 108.808 38.2776 111 38.2867L112.648 38.2935C116.137 38.3078 118.341 38.8026 120.551 40.1651C121.917 41.0079 124.984 43.5659 124.977 45.4848L124.975 45.8967C124.97 47.0741 123.146 47.2691 121.811 47.2559C120.113 47.24 119.212 47.4834 118.1 48.0654C118.533 48.6618 119.055 48.5235 119.186 49.7239C119.264 50.4458 119.184 51.6866 119.181 52.4637C120.032 53.0397 121.096 54.1051 121.09 55.493L121.087 56.4541C121.084 57.0539 120.81 56.9518 120.807 57.5513L120.799 59.4739C120.79 61.6634 122.513 64.842 123.807 66.6675C127.104 67.6369 128.84 70.1753 130.128 77.0325C130.529 79.1713 130.925 82.6084 130.927 86.2209C130.928 88.7089 130.743 91.2809 130.25 93.5758C129.729 95.9997 128.855 98.1578 127.487 99.6839C126.195 101.125 124.508 101.988 122.331 101.989L106.783 101.996L106.682 101.997L106.599 101.985C99.2035 100.998 99.2353 91.522 99.2538 85.7696C99.2561 85.022 99.2583 84.3432 99.2417 83.7597L99.2394 83.6833C99.1215 80.0312 99.4311 75.6254 101.213 72.121C102.523 69.5441 104.575 67.471 107.727 66.514C107.763 65.8878 108.451 64.6874 108.696 64.2297C108.509 63.4111 108.152 62.8215 108.156 61.8932L108.158 61.3437C108.163 60.2741 108.562 59.6497 108.992 59.0128C108.451 58.1976 107.489 57.1979 107.495 55.8482L107.497 55.2991C107.502 54.0953 108.697 53.2392 109.156 52.5597L109.17 49.2643C109.255 49.1377 109.998 48.1762 109.998 48.1694C110 47.6444 110.04 48.1191 109.862 47.7563C109.27 48.1871 107.643 51.8204 106.134 52.822ZM121.501 66.2374L120.876 65.9615C119.441 64.4319 118.317 62.1215 118.329 59.189L118.28 58.3575L118.617 55.8943C118.655 55.632 118.427 55.1014 118.346 54.9324C117.715 55.0768 116.891 55.4756 116.147 55.4725L112.577 55.4578C111.731 55.4544 110.109 54.6116 110.105 55.4476L110.104 55.8592C110.1 56.8071 111.742 58.2448 111.738 59.1614C111.733 60.2767 110.634 60.5424 110.631 61.2171L110.629 61.7658C110.623 63.1147 111.583 63.3408 111.58 64.2418L111.579 64.379C111.576 65.0672 111.006 65.4456 110.598 65.9891C111.217 65.9415 111.867 65.9271 112.552 65.9509C113.918 65.9974 115.13 66.014 116.239 66.028C118.279 66.0545 120.014 66.0779 121.501 66.2374ZM121.959 44.7859C120.97 42.8984 117.256 40.7842 114.285 40.7717L111.539 40.7604L105.908 41.0079L105.9 43.0715C107.688 43.0791 109.209 43.9748 110.314 44.7111C111.063 45.21 111.29 45.5297 111.815 46.2305C112.067 46.568 112.649 48.0431 113.02 48.0446L114.942 48.0522C115.193 48.0537 115.867 46.913 116.1 46.6005C116.358 46.2543 117.186 45.6881 117.614 45.5071C118.771 45.0169 120.383 44.7795 121.959 44.7859Z" fill="#e11d48"/>
<g class="icon-animation-14">
<path  d="M95.8035 42.7424L95.8058 42.2835C95.8088 41.7246 95.3084 41.0582 94.7169 41.056L78.4672 41C77.4785 40.9966 77.0042 41.5598 77 42.3716C76.9962 43.1581 77.8791 43.7511 78.8191 43.7545L94.1549 43.8074C94.8681 43.8097 95.8013 43.2296 95.8035 42.7424Z" fill="#e11d48"/>
<path d="M95.8112 47.6879L95.8131 47.2284C95.8169 46.4887 95.2416 46.0027 94.3587 46C93.2423 45.9958 88.2945 48.1332 87.1043 48.6268C85.3548 49.3521 81.0098 50.2996 81 52.2249C80.9977 52.6614 82.0458 53.2986 82.4555 53.3005L82.8206 53.3017C83.4582 53.3036 88.5674 51.1073 89.5897 50.7255C90.6344 50.3363 95.8071 48.5202 95.8112 47.6879Z" fill="#e11d48"/>
<path d="M95.7651 37.4702L95.767 37.0113C95.7738 35.687 90.987 34.3003 89.5141 33.6759C88.4427 33.222 83.3807 31.0034 82.4687 31C81.9143 30.9985 81.0049 31.6565 81.0015 32.3716L81 32.6774C80.9951 33.6937 86.164 35.4062 87.4328 35.8624C88.5969 36.2804 93.4244 38.5322 94.299 38.5356C94.8497 38.5371 95.7625 37.9165 95.7651 37.4702Z" fill="#e11d48" />
</g>
</svg>