<svg width="163" height="120" viewBox="0 0 163 120" fill="none" xmlns="http://www.w3.org/2000/svg">
<g class="icon-animation-7">
<path fill-rule="evenodd" clip-rule="evenodd" d="M93.2784 13.957L93.0826 14.6714L92.8872 15.1476L92.6914 15.8619L92.4957 16.5762L92.2999 17.2906L92.1041 17.7668L91.9083 18.4811L91.7125 19.1955L91.5168 19.9098L91.321 20.386L91.1252 21.1003L90.9294 21.3385L90.3421 21.5766L89.7547 21.8147L89.3632 22.0528L88.7758 22.2909L88.1885 22.529L87.6012 22.7671L87.2096 23.0052L86.6223 23.2433L86.0349 23.4814L85.4476 23.7196L85.0564 23.9577L84.6649 24.1958V24.4339L84.8606 24.672L85.2522 24.9101L85.8392 25.1482L86.4265 25.3863L86.8181 25.6244L87.4054 25.8626L87.9927 26.1007L88.5801 26.3388L88.9716 26.5769L89.559 26.815L90.1463 27.0531L90.7336 27.2912L91.1252 27.5293L91.321 28.2437L91.5168 28.958L91.7125 29.6723L91.9083 30.1489L92.1041 30.8632L92.2999 31.5776L92.4957 32.2919L92.6914 32.7681L92.8872 33.4825L93.0826 34.1968L93.2784 34.9111L93.4742 35.3873H93.8657L94.0615 34.673L94.2573 33.9587L94.4531 33.4825L94.6489 32.7681L94.8446 32.0538L95.0404 31.3395L95.2362 30.8632L95.432 30.1489L95.6278 29.4342L95.8235 28.7199L96.0193 28.2437L96.2151 27.5293L96.6066 27.2912L97.194 27.0531L97.7813 26.815L98.3687 26.5769L98.7602 26.3388L99.3476 26.1007L99.9349 25.8626L100.522 25.6244L100.913 25.3863L101.501 25.1482L102.088 24.9101L102.675 24.672V24.1958L102.284 23.9577L101.697 23.7196L101.305 23.4814L100.718 23.2433L100.131 23.0052L99.5433 22.7671L99.1518 22.529L98.5645 22.2909L97.9771 22.0528L97.3898 21.8147L96.9982 21.5766L96.4109 21.3385H96.0193V20.6241L95.8235 19.9098L95.6278 19.1955L95.432 18.7192L95.2362 18.0049L95.0404 17.2906L94.8446 16.5762L94.6489 16.1L94.4531 15.3857L94.2573 14.6714L94.0615 13.957L93.8657 13.4808L93.67 13.2427H93.4742L93.2784 13.957Z" fill="#e11d48"/>
<path fill-rule="evenodd" clip-rule="evenodd" d="M104.712 39.6321L104.597 40.0513L104.482 40.3306L104.368 40.7501L104.253 41.1693L104.138 41.5884L104.023 41.8681L103.908 42.2872L103.793 42.7064L103.678 43.1259L103.563 43.4052L103.448 43.8248L103.333 43.9642L102.989 44.1041L102.644 44.2439L102.414 44.3838L102.07 44.5232L101.725 44.6631L101.38 44.8029L101.15 44.9427L100.806 45.0822L100.461 45.2221L100.116 45.3619L99.8865 45.5017L99.6567 45.6412V45.781L99.7716 45.9209L100.001 46.0607L100.346 46.2006L100.691 46.34L100.921 46.4799L101.265 46.6197L101.61 46.7596L101.955 46.899L102.184 47.0389L102.529 47.1787L102.874 47.3186L103.219 47.458L103.448 47.5979L103.563 48.017L103.678 48.4365L103.793 48.8557L103.908 49.1354L104.023 49.5545L104.138 49.9737L104.253 50.3932L104.368 50.6725L104.482 51.0917L104.597 51.5112L104.712 51.9303L104.827 52.2096H105.057L105.172 51.7905L105.287 51.3713L105.402 51.0917L105.517 50.6725L105.631 50.2534L105.746 49.8338L105.861 49.5545L105.976 49.1354L106.091 48.7158L106.206 48.2967L106.321 48.017L106.436 47.5979L106.666 47.458L107.011 47.3186L107.355 47.1787L107.7 47.0389L107.93 46.899L108.274 46.7596L108.619 46.6197L108.964 46.4799L109.194 46.34L109.538 46.2006L109.883 46.0607L110.228 45.9209V45.6412L109.998 45.5017L109.653 45.3619L109.423 45.2221L109.079 45.0822L108.734 44.9427L108.389 44.8029L108.16 44.6631L107.815 44.5232L107.47 44.3838L107.125 44.2439L106.896 44.1041L106.551 43.9642H106.321V43.5451L106.206 43.1259L106.091 42.7064L105.976 42.4271L105.861 42.0079L105.746 41.5884L105.631 41.1693L105.517 40.8896L105.402 40.4704L105.287 40.0513L105.172 39.6321L105.057 39.3524L104.942 39.2126H104.827L104.712 39.6321Z" fill="#e11d48"/>
<path fill-rule="evenodd" clip-rule="evenodd" d="M113.096 29.2233L113.031 29.4603L112.966 29.6183L112.902 29.8552L112.837 30.0922L112.772 30.3292L112.707 30.4872L112.642 30.7242L112.577 30.9611L112.512 31.1981L112.447 31.3561L112.382 31.5931L112.317 31.6721L112.122 31.7511L111.927 31.83L111.797 31.909L111.603 31.988L111.408 32.067L111.213 32.146L111.083 32.225L110.888 32.304L110.693 32.383L110.498 32.462L110.369 32.541L110.239 32.62V32.699L110.304 32.7779L110.434 32.8569L110.628 32.9359L110.823 33.0149L110.953 33.0939L111.148 33.1729L111.343 33.2519L111.538 33.3309L111.668 33.4099L111.862 33.4889L112.057 33.5679L112.252 33.6469L112.382 33.7259L112.447 33.9628L112.512 34.1998L112.577 34.4368L112.642 34.5948L112.707 34.8317L112.772 35.0687L112.837 35.3061L112.902 35.4641L112.966 35.701L113.031 35.938L113.096 36.175L113.161 36.333H113.291L113.356 36.096L113.421 35.859L113.486 35.701L113.551 35.4641L113.616 35.2271L113.681 34.9897L113.746 34.8317L113.811 34.5948L113.876 34.3578L113.941 34.1208L114.006 33.9628L114.071 33.7259L114.2 33.6469L114.395 33.5679L114.59 33.4889L114.785 33.4099L114.915 33.3309L115.11 33.2519L115.305 33.1729L115.499 33.0939L115.629 33.0149L115.824 32.9359L116.019 32.8569L116.214 32.7779V32.62L116.084 32.541L115.889 32.462L115.759 32.383L115.564 32.304L115.37 32.225L115.175 32.146L115.045 32.067L114.85 31.988L114.655 31.909L114.46 31.83L114.33 31.7511L114.136 31.6721H114.006V31.4351L113.941 31.1981L113.876 30.9611L113.811 30.8031L113.746 30.5662L113.681 30.3292L113.616 30.0922L113.551 29.9342L113.486 29.6973L113.421 29.4603L113.356 29.2233L113.291 29.0653L113.226 28.9863H113.161L113.096 29.2233Z" fill="#e11d48"/>
</g>
<path fill-rule="evenodd" clip-rule="evenodd" d="M115.082 100.377C115.08 100.941 114.477 101.54 113.913 101.539C113.145 101.535 109.39 97.4026 108.643 96.6497C106.913 94.9085 105.101 93.3449 102.901 92.0632C100.329 90.5647 98.8706 90.0193 95.7449 89.0483C94.0135 88.5105 93.2625 88.865 91.7125 87.9084C90.9302 87.4254 89.2566 86.2825 88.7834 85.5912L99.3509 75.179C100.017 75.6283 101.05 77.2063 101.542 77.9811C102.499 79.4884 102.202 80.2775 102.653 82.0214C103.39 84.8674 104.358 86.9873 105.684 89.3C106.919 91.4547 108.459 93.2905 110.147 94.9901C110.903 95.7509 115.085 99.606 115.082 100.377ZM97.0696 72.7986L86.4601 83.3344L74.1816 70.8877L84.7907 60.4339L97.0696 72.7986ZM73.4109 64.9315L73.5776 64.9323C73.9673 64.9334 74.2443 64.6583 74.2458 64.2686L74.2469 63.9356C74.2488 63.4186 72.6025 62.1177 72.2189 61.5591L73.2593 60.6017C73.8017 60.9676 75.2224 62.7734 75.7497 62.7753C76.0951 62.7764 76.5838 62.2908 76.5846 62.112C76.5884 61.0201 74.9601 60.0722 74.4609 59.3065L75.4318 58.4447C76.1968 58.961 77.0154 60.4482 78.0888 60.452C78.4785 60.4535 78.7559 60.178 78.757 59.7883L78.7578 59.6217C78.7597 59.0948 76.964 57.6616 76.602 57.1166C77.0941 56.7897 78.0348 55.4566 78.6059 55.4585C79.5001 55.4615 81.8453 57.5119 82.3007 58.1768L71.9002 68.423C71.2796 68.0043 69.2459 65.6451 69.2489 64.7509C69.2504 64.2584 70.7082 63.0108 71.0873 62.759C71.3586 63.1672 72.9094 64.93 73.4109 64.9315ZM68.4639 62.9575C66.8636 61.8644 63.1166 56.4934 63.1257 53.9063L63.128 53.2403C63.131 52.3839 64.3102 51.6506 64.8416 51.123C65.2403 50.7269 66.4471 49.2556 66.9714 49.2571L67.804 49.2601C70.4088 49.2692 75.7304 53.0445 76.8182 54.661L68.4639 62.9575ZM64.5789 66.8991C61.4291 66.8179 57.8309 64.0411 56.2254 62.2518C54.3572 60.1701 52.7925 56.6332 52.8061 52.7048L52.808 52.2051C52.82 48.6935 55.124 45.0104 56.9605 43.1868C58.0105 42.144 59.3235 40.972 60.7865 40.3559C61.8652 39.9016 64.6651 38.9257 66.0083 38.9303L66.6743 38.9325C70.6027 38.9461 74.1286 40.5354 76.1976 42.418C77.9411 44.0047 80.7292 47.7483 80.7867 50.804C79.3247 50.4578 76.5037 47.8802 75.0399 46.8865C73.6728 45.9587 70.1171 44.273 67.988 44.2654L66.6558 44.2609C64.2962 44.2526 62.5395 46.4409 61.2741 47.6976C59.6436 49.3168 58.1428 50.3335 58.1314 53.5559C58.1091 59.9361 64.4277 64.9996 64.5789 66.8991ZM60.2653 70.478L58.0657 72.5378C51.4099 68.9866 45.4435 63.0973 45.4783 53.0124C45.5188 41.4198 55.2223 31.5662 66.6996 31.6063C73.1085 31.6286 78.4925 34.3718 81.7062 37.6112C84.7763 40.7055 88.2962 45.9628 88.2754 51.9953L88.3102 53.3306L88.0048 56.5848L85.9344 54.8179L85.9397 53.3193C85.9767 42.6561 77.6882 34.142 67.0243 34.1049L66.8576 34.1042C56.5535 34.0687 48.0129 42.4218 47.9773 52.6881L47.9762 53.0211C47.96 57.7187 49.4994 61.5243 51.5547 64.2353C52.6511 65.6821 53.6992 66.8564 55.1505 67.9654C56.9892 69.3702 57.8559 68.9851 60.2653 70.478ZM50.6612 94.9912C51.9889 94.9958 52.9954 94.052 53.0003 92.6683L66.6697 79.197C67.3391 79.6588 68.0391 80.7315 69.0267 80.7349L69.693 80.7375C70.7138 80.7409 71.8613 79.6014 71.8651 78.5802L71.8674 77.9142L72.367 77.9161C73.0942 77.9184 72.9725 77.585 73.7 77.5877C74.6665 77.5911 86.2413 92.174 92.0844 93.3468C97.2397 94.382 100.498 95.7804 103.809 98.795C105.747 100.559 110.409 106.355 113.23 106.365L114.562 106.37C116.94 106.378 119.9 103.438 119.909 101.06L119.915 99.3944C119.923 96.8239 113.659 91.9903 112.121 89.8764C110.762 88.0071 109.861 86.8687 108.751 84.5949C107.592 82.2214 107.648 80.253 106.856 77.8477C105.564 73.92 102.005 70.749 99.3343 68.0602C97.4536 66.1663 91.9147 61.0866 90.7476 59.3306L91.7609 52.6942C91.9276 50.267 90.1712 44.4903 89.4191 42.8946C88.1171 40.1318 86.6495 37.9094 84.6267 35.8726C81.2164 32.4382 75.0977 28.4716 68.3758 28.4481L64.879 28.436C62.2073 28.427 57.834 30.017 55.9348 30.9589C53.2388 32.2957 51.4243 33.7493 49.4094 35.7502C46.2021 38.9356 42.3424 45.0724 42.3205 51.3362L42.3107 54.1671C42.2948 58.7596 44.5255 64.2274 46.4954 66.9366C48.1644 69.2315 52.6972 74.1831 55.5598 74.8603C55.3281 75.7153 50.4745 80.16 49.5024 81.1253C48.4313 82.1888 47.4807 83.1303 46.4107 84.1946C45.2912 85.3077 45.8139 84.7015 44.5931 85.372C44.033 85.68 43.3644 86.3584 43.3618 87.1397L43.3588 87.9723C43.3542 89.3469 49.1256 94.986 50.6612 94.9912Z" fill="#858585"/>
<path fill-rule="evenodd" clip-rule="evenodd" d="M59.068 71.5423C57.7304 69.5297 56.9892 69.3702 55.1505 67.9653C53.6992 66.8564 52.6511 65.6821 51.5546 64.2353C49.4993 61.5243 47.9599 57.7187 47.9762 53.0211L47.9773 52.6881C48.0129 42.4218 56.5535 34.0687 66.8576 34.1042L67.0243 34.1049C77.6882 34.142 85.9767 42.6561 85.9397 53.3193L85.9344 54.8179L88.0048 56.5848L88.3102 53.3306L88.2754 51.9953C88.2962 45.9628 84.7763 40.7055 81.7062 37.6112C78.4925 34.3718 73.1085 31.6286 66.6996 31.6063C55.2223 31.5662 45.5187 41.4198 45.4783 53.0124C45.4435 63.0973 51.4099 68.9866 58.0656 72.5378L59.068 71.5423Z" fill="white"/>
<path fill-rule="evenodd" clip-rule="evenodd" d="M64.8129 76.5177L61.7594 73.8799L48.1815 87.0217C48.3954 87.323 50.8366 89.825 51.2818 89.8265C51.2818 89.8265 64.1749 77.4633 64.8129 76.5177Z" fill="#FEFEFE"/>
<path fill-rule="evenodd" clip-rule="evenodd" d="M76.8182 54.661C75.7304 53.0445 70.4088 49.2692 67.804 49.2601L66.9714 49.2571C66.4471 49.2556 65.2403 50.7269 64.8416 51.123C64.3102 51.6506 63.131 52.3839 63.128 53.2403L63.1257 53.9063C63.1166 56.4933 66.8636 61.8644 68.4639 62.9575L76.8182 54.661Z" fill="#e11d48"/>
<path fill-rule="evenodd" clip-rule="evenodd" d="M73.4109 64.9315C72.9094 64.93 71.3586 63.1672 71.0873 62.759C70.7082 63.0108 69.2504 64.2584 69.2489 64.7509C69.2459 65.6451 71.2796 68.0043 71.9002 68.423L82.3007 58.1768C81.8453 57.5119 79.5001 55.4615 78.6059 55.4585C78.0348 55.4566 77.0941 56.7897 76.602 57.1166C76.9641 57.6616 78.7597 59.0948 78.7578 59.6217L78.7571 59.7883C78.7559 60.178 78.4785 60.4535 78.0888 60.452C77.0155 60.4482 76.1968 58.961 75.4318 58.4447L74.4609 59.3064C74.9601 60.0722 76.5884 61.0201 76.5846 62.112C76.5838 62.2908 76.0951 62.7764 75.7497 62.7753C75.2225 62.7734 73.8017 60.9676 73.2594 60.6017L72.2189 61.5591C72.6025 62.1177 74.2488 63.4186 74.247 63.9356L74.2458 64.2686C74.2443 64.6583 73.9673 64.9334 73.5776 64.9323L73.4109 64.9315Z" fill="#FEFEFE"/>
<path fill-rule="evenodd" clip-rule="evenodd" d="M64.5789 66.8992C64.4277 64.9996 58.1091 59.9361 58.1314 53.5559C58.1428 50.3335 59.6436 49.3168 61.2741 47.6976C62.5395 46.4409 64.2962 44.2526 66.6558 44.2609L67.988 44.2654C70.1171 44.273 73.6728 45.9587 75.0399 46.8866C76.5037 47.8802 79.3247 50.4578 80.7867 50.804C80.7292 47.7483 77.9411 44.0047 76.1976 42.418C74.1286 40.5354 70.6027 38.9461 66.6743 38.9325L66.0083 38.9303C64.6651 38.9257 61.8652 39.9016 60.7865 40.3559C59.3235 40.972 58.0105 42.144 56.9605 43.1868C55.124 45.0104 52.82 48.6935 52.8079 52.2051L52.8061 52.7048C52.7925 56.6332 54.3572 60.1701 56.2254 62.2518C57.8309 64.0411 61.4291 66.8179 64.5789 66.8992Z" fill="#FEFEFE"/>
<path fill-rule="evenodd" clip-rule="evenodd" d="M84.7907 60.4339L74.1816 70.8877L86.4601 83.3344L97.0696 72.7986L84.7907 60.4339Z" fill="#FEFEFE"/>
<path fill-rule="evenodd" clip-rule="evenodd" d="M115.082 100.377C115.085 99.6061 110.903 95.7509 110.147 94.9901C108.459 93.2905 106.919 91.4547 105.684 89.3C104.358 86.9873 103.39 84.8674 102.653 82.0214C102.202 80.2775 102.499 79.4884 101.542 77.9811C101.05 77.2063 100.017 75.6283 99.3509 75.179L88.7834 85.5912C89.2566 86.2825 90.9302 87.4254 91.7125 87.9084C93.2625 88.865 94.0135 88.5105 95.7449 89.0483C98.8706 90.0193 100.329 90.5647 102.901 92.0632C105.101 93.3449 106.913 94.9085 108.643 96.6497C109.39 97.4026 113.145 101.535 113.913 101.539C114.477 101.54 115.08 100.941 115.082 100.377Z" fill="white"/>
</svg>