<svg width="163" height="120" viewBox="0 0 163 120" fill="none" xmlns="http://www.w3.org/2000/svg">
<g clip-path="url(#clip0_3206_4)">
<defs>
	<clipPath id="icon-animation-1">
<path  d="M155.574 11.7649C158.274 11.7649 162.224 8.23976 162.224 6.13796V2.55686C162.224 1.36404 160.859 -0.000366211 159.666 -0.000366211H159.155C152.867 -0.000366211 147.12 11.7649 155.574 11.7649ZM118.834 34.0131C117.917 30.1837 113.308 16.3087 110.186 15.4972L109.7 18.339C112.368 22.6643 118.117 35.119 117.271 42.943C124.405 28.8 143.886 17.8753 152.272 14.2118C152.884 13.9446 149.073 14.1789 145.787 13.8713C139.798 15.2289 130.054 23.2966 125.206 28.0105C123.786 29.3908 120.062 33.2126 118.834 34.0131Z"/>
	</clipPath>
</defs>
<path fill-rule="evenodd" clip-rule="evenodd" d="M31.1388 92.6929C31.1388 91.8149 31.2873 92.1456 31.5541 91.0322H101.303C102.259 91.0322 102.548 91.3213 102.548 92.2775V92.6929C102.548 93.6495 102.259 93.9387 101.303 93.9387H32.7995C31.9975 93.9387 31.1388 93.1982 31.1388 92.6929ZM16.608 90.6172C16.608 88.8404 17.8877 87.2958 19.5141 87.2958C21.2908 87.2958 22.8355 88.5755 22.8355 90.2018C22.8355 92.14 21.8676 93.1079 19.9294 93.1079H18.6837C17.6349 93.1079 16.608 91.3882 16.608 90.6172ZM114.588 93.1079H113.758C112.79 93.1079 111.682 92.0005 111.682 91.0322V89.3718C111.682 88.4035 112.79 87.2958 113.758 87.2958H115.003C116.694 87.2958 116.937 89.0411 117.495 90.2018C116.719 91.8168 117.103 93.1079 114.588 93.1079ZM31.1388 87.2958C31.1388 86.324 31.8278 85.635 32.7995 85.635H101.303C102.259 85.635 102.548 85.9242 102.548 86.8804V87.2958C102.548 88.2524 102.259 88.5415 101.303 88.5415H32.3845C31.4275 88.5415 31.1388 88.2524 31.1388 87.2958ZM92.9994 80.6532H40.6877C39.7198 80.6532 38.6116 79.5451 38.6116 78.5771V77.7468C38.6116 74.5342 42.6353 70.2739 45.2545 70.2739H87.1869C94.4217 70.2739 97.923 80.6532 92.9994 80.6532ZM17.023 73.5953V71.9346C17.023 68.4767 21.5569 64.4614 25.3266 64.4614C29.3503 64.4614 34.0448 68.0719 34.0448 71.9346V74.4253C34.0448 77.9426 29.9951 81.8986 26.1566 81.8986H25.3266C21.0293 81.8986 17.023 77.8927 17.023 73.5953ZM99.6423 73.18C99.6423 69.0248 103.796 64.4614 107.53 64.4614C112.794 64.4614 117.079 67.9759 117.079 73.18C117.079 77.8843 113.049 81.8986 108.361 81.8986C103.675 81.8986 99.6423 77.8651 99.6423 73.18ZM8.71936 92.6929C8.71936 96.2634 10.3056 98.9208 13.7019 98.9208H119.155C121.993 98.9208 124.967 97.0927 124.967 94.3536V75.2557C124.967 67.2045 117.017 58.2338 110.021 58.2338H25.7416C17.1976 58.2338 8.71936 66.4044 8.71936 75.2557V92.6929Z" fill="#FEFEFE"/>
<path d="M114.477 93.4723C116.252 93.4723 117.69 92.0339 117.69 90.2597C117.69 88.4854 116.252 87.0471 114.477 87.0471C112.703 87.0471 111.265 88.4854 111.265 90.2597C111.265 92.0339 112.703 93.4723 114.477 93.4723Z" fill="#858585" stroke="#858585" stroke-width="0.288"/>
<path fill-rule="evenodd" clip-rule="evenodd" d="M22.8355 55.3274H110.852C110.73 53.8685 105.948 45.2825 104.965 43.7764C103.299 41.2248 98.0402 36.6448 94.2448 36.6448H41.5181C36.2064 36.6448 31.4215 39.7735 29.2966 43.1059C28.3102 44.6528 22.9308 54.1803 22.8355 55.3274Z" fill="#FEFEFE"/>
<path fill-rule="evenodd" clip-rule="evenodd" d="M16.9705 47.4115H20.6699C22.1609 44.4117 24.805 39.7164 25.5814 38.6759C27.9262 35.534 34.2338 31.3637 40.0947 31.3637H94.4134C101.26 31.626 106.422 37.4876 108.261 39.456C109.041 40.478 111.991 44.9548 113.633 47.8987H116.596C116.461 46.5234 111.185 38.4276 110.101 37.0076C108.262 34.602 102.911 29.0094 94.5698 29.0094H39.1483C33.2874 29.0094 26.4442 32.7462 24.1002 35.8881C23.0113 37.3467 17.0755 46.3298 16.9705 47.4115Z" fill="#e11d48"/>
<path fill-rule="evenodd" clip-rule="evenodd" d="M12.0408 106.394V101.827H26.9873L26.9325 106.168C26.9185 107.303 26.5754 107.639 24.9112 107.639H13.2865C12.3299 107.639 12.0408 107.35 12.0408 106.394ZM106.7 105.148V101.827H122.061V105.978C122.061 106.95 121.372 107.639 120.4 107.639H108.361C107.085 107.639 106.7 106.423 106.7 105.148ZM8.71937 92.6929V75.2557C8.71937 66.4044 17.1976 58.2338 25.7416 58.2338H110.021C117.017 58.2338 124.967 67.2045 124.967 75.2557V94.3536C124.967 97.0927 121.993 98.9208 119.155 98.9208H13.7019C10.3056 98.9208 8.71937 96.2634 8.71937 92.6929ZM22.8355 55.3274C22.9308 54.1803 28.3102 44.6529 29.2966 43.1059C31.4215 39.7735 36.2064 36.6448 41.5181 36.6448H94.2448C98.0402 36.6448 103.299 41.2248 104.965 43.7764C105.948 45.2825 110.73 53.8685 110.852 55.3274H22.8355ZM120.4 49.9302C120.4 48.9585 121.09 48.2699 122.061 48.2699H129.119C130.091 48.2699 130.78 48.9585 130.78 49.9302V54.082H120.4V49.9302ZM2.90721 50.3456C2.86639 48.3016 5.74374 48.4834 8.69631 48.5597C11.1432 48.6232 13.6479 48.1043 13.6653 50.1815L13.7019 54.4974H4.15256C3.19634 54.4974 2.90721 54.2086 2.90721 53.2517V50.3456ZM129.949 57.4035C132.922 57.5286 134.137 56.2227 134.101 54.082V50.3456C134.084 46.2251 132.54 44.9306 127.459 44.9484H122.892C118.978 44.9473 116.877 46.1904 116.958 50.0232L117.062 54.9558L114.188 54.9453C113.746 53.1092 107.953 42.7877 106.79 41.1216C104.306 37.5625 98.9337 33.7387 92.9994 33.7387H40.6877C34.645 33.7387 29.4618 37.6339 26.9783 41.2029C25.8584 42.8118 20.1517 52.8514 19.7193 54.4721L16.5997 54.548C16.6091 51.1332 17.3991 44.818 12.0408 45.3634H5.39829C2.04888 45.3634 0.00112915 46.9417 0.00112915 50.3456V54.082C0.00112915 55.5995 1.1467 57.4035 2.49222 57.4035H13.2865L16.5453 57.346C10.8076 62.4461 5.81366 64.9841 5.81366 76.086V95.184C5.81366 97.2582 7.82664 99.2478 8.71937 100.581C8.38601 106.422 7.70532 110.923 13.7019 110.546H25.7416C27.8404 110.546 29.8934 109.048 29.8934 106.809V101.827H103.793V107.224C103.793 108.975 106.291 110.546 108.361 110.546H120.816C122.865 110.546 124.136 108.881 124.967 107.639V100.581C125.943 99.1245 127.874 97.5628 127.874 95.184V73.5953C127.874 65.0547 121.511 61.2559 117.079 57.4035L122.478 57.3683L129.949 57.4035Z" fill="#858585"/>
<path fill-rule="evenodd" clip-rule="evenodd" d="M102.963 73.18V74.0104C102.963 76.3677 105.815 78.9922 107.53 78.9922H107.945C110.939 78.9922 113.758 76.9017 113.758 74.0104V73.18C113.758 70.2966 111.998 67.7828 109.191 67.7828H107.53C104.898 67.7828 102.963 70.4281 102.963 73.18Z" fill="#FEFEFE"/>
<path fill-rule="evenodd" clip-rule="evenodd" d="M41.9331 77.7468H92.1691C91.5557 75.1132 90.4362 73.5953 87.1869 73.5953H45.6699C43.1531 73.5953 42.1293 75.3921 41.9331 77.7468Z" fill="#FEFEFE"/>
<path fill-rule="evenodd" clip-rule="evenodd" d="M41.9331 77.7468C42.1293 75.3922 43.1531 73.5954 45.6699 73.5954H87.1869C90.4361 73.5954 91.5556 75.1132 92.1691 77.7468H41.9331ZM92.9994 80.6533C97.923 80.6533 94.4217 70.2739 87.1869 70.2739H45.2545C42.6353 70.2739 38.6116 74.5342 38.6116 77.7468V78.5772C38.6116 79.5451 39.7198 80.6533 40.6877 80.6533H92.9994Z" fill="#858585"/>
<path fill-rule="evenodd" clip-rule="evenodd" d="M102.922 86.8804C102.922 85.9241 102.633 85.635 101.677 85.635H100.728H33.1737H32.225C31.2684 85.635 30.9796 85.9241 30.9796 86.8804V87.2957C30.9796 88.2523 31.2684 88.5415 32.225 88.5415H32.7587H101.143H101.677C102.633 88.5415 102.922 88.2523 102.922 87.2957V86.8804ZM101.722 91.0322H101.974L101.976 91.0428C102.695 91.1047 102.922 91.4294 102.922 92.2775V92.6929C102.922 93.6495 102.633 93.9386 101.677 93.9386H100.728H33.1737H32.225C31.2684 93.9386 30.9796 93.6495 30.9796 92.6929V92.2775C30.9796 91.4298 31.2072 91.1055 31.9257 91.0431L31.9283 91.0322H32.1812H101.677H101.722Z" fill="#858585"/>
<path fill-rule="evenodd" clip-rule="evenodd" d="M3.32069 75.7985C4.05429 66.5447 6.61795 63.1801 9.13474 60.3096H6.22866C2.92837 60.3096 0.0676488 69.6412 0.00112915 75.6707V94.3537C0.00112915 97.6313 0.449381 96.9714 3.30255 96.3296L3.32069 75.7985Z" fill="#858585"/>
<path fill-rule="evenodd" clip-rule="evenodd" d="M130.872 75.7985C130.139 66.5447 127.575 63.1801 125.058 60.3096H127.964C131.265 60.3096 134.125 69.6412 134.192 75.6707V94.3537C134.192 97.6313 133.743 96.9714 130.89 96.3296L130.872 75.7985Z" fill="#858585"/>
<path fill-rule="evenodd" clip-rule="evenodd" d="M106.7 105.148C106.7 106.423 107.085 107.639 108.361 107.639H120.4C121.372 107.639 122.061 106.95 122.061 105.978V101.827H106.7V105.148Z" fill="#FEFEFE"/>
<path d="M19.6248 93.4723C21.3991 93.4723 22.8374 92.0339 22.8374 90.2597C22.8374 88.4854 21.3991 87.0471 19.6248 87.0471C17.8505 87.0471 16.4122 88.4854 16.4122 90.2597C16.4122 92.0339 17.8505 93.4723 19.6248 93.4723Z" fill="#858585" stroke="#858585" stroke-width="0.288"/>
<path d="M25.5341 82.0271C30.4202 82.0271 34.3812 78.0661 34.3812 73.18C34.3812 68.2939 30.4202 64.3329 25.5341 64.3329C20.648 64.3329 16.687 68.2939 16.687 73.18C16.687 78.0661 20.648 82.0271 25.5341 82.0271Z" fill="#858585" stroke="#858585" stroke-width="0.288"/>
<path d="M25.5341 79.0133C28.7558 79.0133 31.3674 76.4017 31.3674 73.18C31.3674 69.9583 28.7558 67.3467 25.5341 67.3467C22.3124 67.3467 19.7008 69.9583 19.7008 73.18C19.7008 76.4017 22.3124 79.0133 25.5341 79.0133Z" fill="white" stroke="#858585" stroke-width="0.288"/>
<path d="M108.167 82.0271C113.053 82.0271 117.014 78.0661 117.014 73.18C117.014 68.2939 113.053 64.3329 108.167 64.3329C103.281 64.3329 99.3199 68.2939 99.3199 73.18C99.3199 78.0661 103.281 82.0271 108.167 82.0271Z" fill="#858585" stroke="#858585" stroke-width="0.288"/>
<path d="M108.167 79.0133C111.389 79.0133 114 76.4017 114 73.18C114 69.9583 111.389 67.3467 108.167 67.3467C104.945 67.3467 102.334 69.9583 102.334 73.18C102.334 76.4017 104.945 79.0133 108.167 79.0133Z" fill="white" stroke="#858585" stroke-width="0.288"/>
</g>
<defs>
<clipPath id="clip0_3206_4">
<rect width="162.225" height="110.566" fill="white"/>
</clipPath>
</defs>
<g clip-path="url(#icon-animation-1)">
	<path class="icon-animation icon-animation-1" fill-rule="evenodd" clip-rule="evenodd" d="M155.574 11.7649C158.274 11.7649 162.224 8.23976 162.224 6.13796V2.55686C162.224 1.36404 160.859 -0.000366211 159.666 -0.000366211H159.155C152.867 -0.000366211 147.12 11.7649 155.574 11.7649ZM118.834 34.0131C117.917 30.1837 113.308 16.3087 110.186 15.4972L109.7 18.339C112.368 22.6643 118.117 35.119 117.271 42.943C124.405 28.8 143.886 17.8753 152.272 14.2118C152.884 13.9446 149.073 14.1789 145.787 13.8713C139.798 15.2289 130.054 23.2966 125.206 28.0105C123.786 29.3908 120.062 33.2126 118.834 34.0131Z"/>
</g>
</svg>