<svg width="163" height="120" viewBox="0 0 163 120" fill="none" xmlns="http://www.w3.org/2000/svg">
<path fill-rule="evenodd" clip-rule="evenodd" d="M42.1141 31.5674H120.354C125.417 31.5674 127.437 36.9536 129.559 42.325L143.367 77.2861C145.626 83.0045 142.294 88.0433 134.162 88.0433H28.306C21.0372 88.0433 15.9953 85.1501 19.1013 77.2861L32.9095 42.325C35.0313 36.9524 37.0511 31.5674 42.1141 31.5674Z" stroke="#858585" stroke-width="3.77953"/>

<path fill-rule="evenodd" clip-rule="evenodd" d="M45.9224 37.6263H115.447C119.424 37.6263 120.875 41.9342 122.677 46.0758L134.623 73.5364C138.245 81.8619 135.223 81.9859 127.393 81.9859H35.0766C27.7784 81.9859 24.1032 83.0143 27.8464 73.5364L38.6925 46.0758C40.3589 41.856 41.9456 37.6263 45.9224 37.6263Z" fill="#ABABAB" stroke="#858585" stroke-width="3.77953"/>
<g class="icon-animation-11">
<path fill-rule="evenodd" clip-rule="evenodd" d="M95.5314 37.6263H107.258H115.447C119.424 37.6263 120.875 41.9346 122.677 46.0758L127.161 56.3837L95.5314 37.6263Z" fill="white" stroke="#858585" stroke-width="3.77953"/>
<path d="M98.0236 36.8243L125.599 53.2656L129.632 55.6702L125.207 56.7942C116.898 58.9043 110.251 59.8628 105.242 57.5996C100.02 55.2401 96.793 49.6471 95.6864 38.7288L95.3303 35.2184L98.0236 36.8243ZM119.99 54.1614L99.3744 41.8696C100.563 48.8243 102.924 52.5131 106.405 54.0862C109.788 55.6154 114.355 55.3334 119.99 54.1614Z" fill="white"/>
<path fill-rule="evenodd" clip-rule="evenodd" d="M98.3191 36.8417L125.895 53.283C109.831 57.3623 100.369 57.0682 98.3191 36.8417Z" fill="#e11d48"/>
</g>
</svg>