<svg width="163" height="111" viewBox="0 0 163 111" fill="none" xmlns="http://www.w3.org/2000/svg">
<path fill-rule="evenodd" clip-rule="evenodd" d="M35.1632 88.9194C35.1632 88.0414 35.3118 88.3722 35.5786 87.2587H105.327C106.284 87.2587 106.573 87.5478 106.573 88.5041V88.9194C106.573 89.876 106.284 90.1652 105.327 90.1652H36.824C36.0219 90.1652 35.1632 89.4248 35.1632 88.9194ZM20.6325 86.8437C20.6325 85.067 21.9122 83.5223 23.5385 83.5223C25.3153 83.5223 26.86 84.802 26.86 86.4283C26.86 88.3665 25.8921 89.3344 23.9539 89.3344H22.7082C21.6594 89.3344 20.6325 87.6147 20.6325 86.8437ZM118.613 89.3344H117.782C116.814 89.3344 115.706 88.227 115.706 87.2587V85.5984C115.706 84.63 116.814 83.5223 117.782 83.5223H119.028C120.719 83.5223 120.962 85.2677 121.519 86.4283C120.744 88.0433 121.127 89.3344 118.613 89.3344ZM35.1632 83.5223C35.1632 82.5506 35.8522 81.8615 36.824 81.8615H105.327C106.284 81.8615 106.573 82.1507 106.573 83.1069V83.5223C106.573 84.4789 106.284 84.768 105.327 84.768H36.409C35.452 84.768 35.1632 84.4789 35.1632 83.5223ZM97.0239 76.8797H44.7122C43.7443 76.8797 42.6361 75.7716 42.6361 74.8037V73.9733C42.6361 70.7607 46.6598 66.5004 49.279 66.5004H91.2114C98.4461 66.5004 101.947 76.8797 97.0239 76.8797ZM21.0475 69.8219V68.1611C21.0475 64.7032 25.5814 60.6879 29.3511 60.6879C33.3748 60.6879 38.0693 64.2985 38.0693 68.1611V70.6518C38.0693 74.1691 34.0196 78.1251 30.1811 78.1251H29.3511C25.0538 78.1251 21.0475 74.1192 21.0475 69.8219ZM103.667 69.4065C103.667 65.2513 107.82 60.6879 111.555 60.6879C116.818 60.6879 121.104 64.2025 121.104 69.4065C121.104 74.1109 117.073 78.1251 112.385 78.1251C107.7 78.1251 103.667 74.0916 103.667 69.4065ZM12.7438 88.9194C12.7438 92.49 14.3301 95.1473 17.7264 95.1473H123.179C126.018 95.1473 128.992 93.3192 128.992 90.5802V71.4822C128.992 63.4311 121.042 54.4603 114.046 54.4603H29.7661C21.2221 54.4603 12.7438 62.6309 12.7438 71.4822V88.9194Z" fill="#FEFEFE"/>
<path d="M118.502 89.6988C120.276 89.6988 121.714 88.2604 121.714 86.4862C121.714 84.7119 120.276 83.2736 118.502 83.2736C116.728 83.2736 115.289 84.7119 115.289 86.4862C115.289 88.2604 116.728 89.6988 118.502 89.6988Z" fill="#858585" stroke="#858585" stroke-width="0.288"/>
<path fill-rule="evenodd" clip-rule="evenodd" d="M26.86 51.5539H114.876C114.754 50.095 109.973 41.509 108.99 40.0029C107.323 37.4513 102.065 32.8713 98.2692 32.8713H45.5426C40.2308 32.8713 35.4459 36 33.3211 39.3324C32.3346 40.8794 26.9552 50.4068 26.86 51.5539Z" fill="#FEFEFE"/>
<path fill-rule="evenodd" clip-rule="evenodd" d="M20.9949 43.638H24.6943C26.1853 40.6382 28.8295 35.9429 29.6058 34.9024C31.9506 31.7605 38.2582 27.5902 44.1192 27.5902H98.4378C105.284 27.8525 110.446 33.7141 112.285 35.6825C113.065 36.7045 116.015 41.1813 117.658 44.1252H120.62C120.486 42.7499 115.21 34.6541 114.125 33.2341C112.287 30.8285 106.935 25.2359 98.5942 25.2359H43.1728C37.3118 25.2359 30.4686 28.9727 28.1246 32.1146C27.0357 33.5732 21.0999 42.5563 20.9949 43.638Z" fill="#e11d48"/>
<path fill-rule="evenodd" clip-rule="evenodd" d="M16.0653 102.62V98.053H31.0118L30.957 102.395C30.943 103.53 30.5998 103.866 28.9357 103.866H17.311C16.3544 103.866 16.0653 103.577 16.0653 102.62ZM110.724 101.374V98.053H126.086V102.205C126.086 103.177 125.397 103.866 124.425 103.866H112.385C111.109 103.866 110.724 102.649 110.724 101.374ZM12.7438 88.9194V71.4822C12.7438 62.6309 21.222 54.4603 29.766 54.4603H114.046C121.042 54.4603 128.992 63.431 128.992 71.4822V90.5801C128.992 93.3192 126.018 95.1473 123.179 95.1473H17.7264C14.3301 95.1473 12.7438 92.4899 12.7438 88.9194ZM26.86 51.5539C26.9552 50.4068 32.3346 40.8794 33.3211 39.3324C35.4459 36 40.2308 32.8713 45.5426 32.8713H98.2692C102.065 32.8713 107.323 37.4513 108.99 40.0029C109.973 41.509 114.754 50.095 114.876 51.5539H26.86ZM124.425 46.1567C124.425 45.185 125.114 44.4964 126.086 44.4964H133.143C134.115 44.4964 134.804 45.185 134.804 46.1567V50.3085H124.425V46.1567ZM6.93165 46.5721C6.89083 44.5281 9.76819 44.7099 12.7208 44.7863C15.1676 44.8497 17.6723 44.3308 17.6897 46.408L17.7264 50.7239H8.17701C7.22079 50.7239 6.93165 50.4351 6.93165 49.4782V46.5721ZM133.974 53.63C136.947 53.7551 138.161 52.4492 138.126 50.3085V46.5721C138.108 42.4516 136.565 41.1571 131.483 41.1749H126.916C123.002 41.1738 120.902 42.4169 120.982 46.2497L121.086 51.1823L118.213 51.1718C117.77 49.3357 111.978 39.0142 110.815 37.3481C108.33 33.789 102.958 29.9652 97.0239 29.9652H44.7122C38.6695 29.9652 33.4862 33.8604 31.0027 37.4294C29.8828 39.0383 24.1761 49.0779 23.7437 50.6986L20.6241 50.7745C20.6336 47.3597 21.4235 41.0445 16.0653 41.5899H9.42274C6.07332 41.5899 4.02557 43.1682 4.02557 46.5721V50.3085C4.02557 51.826 5.17115 53.63 6.51666 53.63H17.311L20.5697 53.5725C14.832 58.6726 9.83811 61.2106 9.83811 72.3125V91.4105C9.83811 93.4847 11.8511 95.4743 12.7438 96.8077C12.4105 102.649 11.7298 107.15 17.7264 106.772H29.766C31.8648 106.772 33.9179 105.274 33.9179 103.036V98.053H107.818V103.451C107.818 105.202 110.315 106.772 112.385 106.772H124.84C126.89 106.772 128.16 105.108 128.992 103.866V96.8077C129.967 95.351 131.898 93.7893 131.898 91.4105V69.8218C131.898 61.2812 125.536 57.4824 121.104 53.63L126.502 53.5948L133.974 53.63Z" fill="#858585"/>
<path fill-rule="evenodd" clip-rule="evenodd" d="M106.988 69.4065V70.2368C106.988 72.5941 109.839 75.2186 111.555 75.2186H111.97C114.963 75.2186 117.782 73.1282 117.782 70.2368V69.4065C117.782 66.5231 116.023 64.0093 113.215 64.0093H111.555C108.923 64.0093 106.988 66.6546 106.988 69.4065Z" fill="#FEFEFE"/>
<path fill-rule="evenodd" clip-rule="evenodd" d="M45.9575 73.9733H96.1935C95.5801 71.3397 94.4606 69.8219 91.2113 69.8219H49.6943C47.1776 69.8219 46.1537 71.6186 45.9575 73.9733Z" fill="#FEFEFE"/>
<path fill-rule="evenodd" clip-rule="evenodd" d="M45.9576 73.9733C46.1537 71.6186 47.1776 69.8219 49.6944 69.8219H91.2113C94.4606 69.8219 95.5801 71.3397 96.1935 73.9733H45.9576ZM97.0239 76.8798C101.947 76.8798 98.4461 66.5004 91.2113 66.5004H49.279C46.6598 66.5004 42.6361 70.7607 42.6361 73.9733V74.8037C42.6361 75.7716 43.7443 76.8798 44.7122 76.8798H97.0239Z" fill="#858585"/>
<path fill-rule="evenodd" clip-rule="evenodd" d="M106.947 83.1069C106.947 82.1507 106.658 81.8615 105.701 81.8615H104.753H37.1981H36.2494C35.2928 81.8615 35.0041 82.1507 35.0041 83.1069V83.5223C35.0041 84.4789 35.2928 84.768 36.2494 84.768H36.7831H105.168H105.701C106.658 84.768 106.947 84.4789 106.947 83.5223V83.1069ZM105.746 87.2587H105.998L106.001 87.2693C106.72 87.3313 106.947 87.6559 106.947 88.5041V88.9194C106.947 89.876 106.658 90.1652 105.701 90.1652H104.753H37.1981H36.2494C35.2928 90.1652 35.0041 89.876 35.0041 88.9194V88.5041C35.0041 87.6563 35.2316 87.332 35.9501 87.2697L35.9527 87.2587H36.2056H105.701H105.746Z" fill="#858585"/>
<path fill-rule="evenodd" clip-rule="evenodd" d="M7.34513 72.0249C8.07874 62.7711 10.6424 59.4066 13.1592 56.5361H10.2531C6.95282 56.5361 4.09209 65.8677 4.02557 71.8972V90.5802C4.02557 93.8578 4.47383 93.1979 7.32699 92.5561L7.34513 72.0249Z" fill="#858585"/>
<path fill-rule="evenodd" clip-rule="evenodd" d="M134.897 72.0249C134.163 62.7711 131.599 59.4066 129.083 56.5361H131.989C135.289 56.5361 138.15 65.8677 138.216 71.8972V90.5802C138.216 93.8578 137.768 93.1979 134.915 92.5561L134.897 72.0249Z" fill="#858585"/>
<path fill-rule="evenodd" clip-rule="evenodd" d="M110.724 101.374C110.724 102.649 111.109 103.866 112.385 103.866H124.425C125.397 103.866 126.086 103.177 126.086 102.205V98.053H110.724V101.374Z" fill="#FEFEFE"/>
<path d="M23.6492 89.6988C25.4235 89.6988 26.8618 88.2604 26.8618 86.4862C26.8618 84.7119 25.4235 83.2736 23.6492 83.2736C21.875 83.2736 20.4366 84.7119 20.4366 86.4862C20.4366 88.2604 21.875 89.6988 23.6492 89.6988Z" fill="#858585" stroke="#858585" stroke-width="0.288"/>
<path d="M29.5585 78.2536C34.4447 78.2536 38.4057 74.2926 38.4057 69.4065C38.4057 64.5204 34.4447 60.5594 29.5585 60.5594C24.6724 60.5594 20.7114 64.5204 20.7114 69.4065C20.7114 74.2926 24.6724 78.2536 29.5585 78.2536Z" fill="#858585" stroke="#858585" stroke-width="0.288"/>
<path d="M29.5585 75.2398C32.7802 75.2398 35.3919 72.6281 35.3919 69.4065C35.3919 66.1848 32.7802 63.5732 29.5585 63.5732C26.3369 63.5732 23.7252 66.1848 23.7252 69.4065C23.7252 72.6281 26.3369 75.2398 29.5585 75.2398Z" fill="white" stroke="#858585" stroke-width="0.288"/>
<path d="M112.191 78.2536C117.078 78.2536 121.039 74.2926 121.039 69.4065C121.039 64.5204 117.078 60.5594 112.191 60.5594C107.305 60.5594 103.344 64.5204 103.344 69.4065C103.344 74.2926 107.305 78.2536 112.191 78.2536Z" fill="#858585" stroke="#858585" stroke-width="0.288"/>
<path d="M112.191 75.2398C115.413 75.2398 118.025 72.6281 118.025 69.4065C118.025 66.1848 115.413 63.5732 112.191 63.5732C108.97 63.5732 106.358 66.1848 106.358 69.4065C106.358 72.6281 108.97 75.2398 112.191 75.2398Z" fill="white" stroke="#858585" stroke-width="0.288"/>
<path d="M126.835 64.5351C143.071 64.5351 156.233 51.3731 156.233 35.1369C156.233 18.9008 143.071 5.7388 126.835 5.7388C110.599 5.7388 97.4371 18.9008 97.4371 35.1369C97.4371 51.3731 110.599 64.5351 126.835 64.5351Z" fill="white"/>
<path d="M118.735 35.5072V35.5113H118.727C118.727 38.1513 119.495 40.4886 120.829 42.1459C122.071 43.6887 123.831 44.6343 125.921 44.6355V44.6275H125.926L125.93 44.6355C128.477 44.6351 130.569 43.8939 131.99 42.4309C133.44 40.9395 134.269 38.6309 134.27 35.5155H134.263V35.5072V35.5019H134.27C134.27 35.1292 134.152 34.5702 133.945 33.8804C133.708 33.092 133.371 32.2076 132.965 31.2745C131.249 27.3339 128.411 22.5596 126.55 20.1589C126.156 20.6857 125.745 21.2765 125.332 21.9035C122.473 26.2466 118.735 33.1824 118.735 35.5072ZM114.811 35.5113H114.804V35.5072C114.804 32.4386 118.916 24.5318 122.061 19.7541C122.705 18.7748 123.285 17.9494 123.757 17.3424C124.33 16.6057 124.859 16.0339 125.306 15.6918L125.321 15.6847L125.324 15.682L126.512 14.7916L127.689 15.6896C129.561 17.119 134.18 24.2464 136.558 29.7086C137.037 30.8081 137.432 31.8444 137.707 32.7594C138.011 33.7731 138.185 34.7051 138.186 35.5019H138.194V35.5072V35.5155H138.186C138.184 39.7194 136.952 42.9498 134.8 45.1646C132.617 47.4119 129.558 48.5499 125.93 48.5507V48.5586H125.921V48.5507C122.558 48.5492 119.742 47.0498 117.773 44.6026C115.894 42.268 114.812 39.0633 114.811 35.5113Z" fill="#858585"/>
<path d="M126.835 3.7731L126.838 3.78104C135.502 3.78179 143.342 7.29109 149.013 12.9615C154.682 18.6312 158.189 26.4699 158.191 35.1311H158.199V35.1368L158.191 35.1398C158.19 43.8032 154.682 51.6438 149.011 57.3143C143.341 62.9836 135.503 66.4913 126.841 66.4928V66.5008H126.835L126.832 66.4928C118.169 66.4921 110.328 62.9836 104.658 57.3124C98.9885 51.6427 95.4807 43.8043 95.4792 35.1428H95.4713V35.1368L95.4792 35.1341C95.4799 26.4707 98.9885 18.63 104.66 12.96C110.33 7.29033 118.168 3.78255 126.829 3.78104V3.7731H126.835ZM126.838 7.69663V7.70419H126.829V7.69663C119.263 7.69776 112.407 10.7717 107.439 15.7391C102.47 20.7077 99.3952 27.5664 99.3948 35.1341H99.4027V35.1428H99.3948C99.3959 42.7087 102.47 49.5655 107.437 54.5333C112.406 59.5026 119.265 62.5769 126.832 62.5773V62.5697H126.841V62.5773C134.407 62.5761 141.264 59.5022 146.231 54.5352C151.201 49.5662 154.275 42.7075 154.276 35.1398H154.268V35.1311H154.276C154.274 27.5656 151.2 20.7084 146.233 15.7406C141.264 10.7717 134.406 7.69701 126.838 7.69663Z" fill="#e11d48"/>
<path class="icon-animation-5" d="M154.294 20.8532L100.159 48.0798L98.3985 44.5829L152.533 17.3564L154.294 20.8532Z" fill="#e11d48"/>
</svg>