<svg width="163" height="120" viewBox="0 0 163 120" fill="none" xmlns="http://www.w3.org/2000/svg">
<!-- Виниловая оклейка — машина с разноцветными панелями -->
<!-- Кузов машины (контур) -->
<path d="M25 78 L25 65 Q25 58, 35 55 L55 48 Q62 42, 75 40 L95 40 Q108 42, 115 48 L135 55 Q145 58, 145 65 L145 78" stroke="#858585" stroke-width="2.5" fill="none"/>
<!-- Крыша -->
<path d="M55 48 Q62 35, 80 33 Q98 35, 105 42 L115 48" stroke="#858585" stroke-width="2.5" fill="none"/>
<!-- Окна -->
<path d="M60 47 L72 36 Q80 34, 88 36 L100 44" stroke="#858585" stroke-width="1.5" fill="none"/>
<line x1="80" y1="35" x2="80" y2="47" stroke="#858585" stroke-width="1.5"/>
<!-- Цветные панели (акцент — разные цвета) -->
<path d="M28 65 L55 55 L55 65 Z" fill="#e11d48" opacity="0.6"/>
<path d="M55 55 L80 48 L80 65 L55 65 Z" fill="#e11d48" opacity="0.4"/>
<path d="M80 48 L105 55 L105 65 L80 65 Z" fill="#4ade80" opacity="0.4"/>
<path d="M105 55 L140 65 L105 65 Z" fill="#60a5fa" opacity="0.5"/>
<!-- Колёса -->
<circle cx="50" cy="80" r="11" stroke="#858585" stroke-width="2.5" fill="none"/>
<circle cx="50" cy="80" r="5" fill="#858585"/>
<circle cx="120" cy="80" r="11" stroke="#858585" stroke-width="2.5" fill="none"/>
<circle cx="120" cy="80" r="5" fill="#858585"/>
<!-- Днище -->
<line x1="35" y1="78" x2="40" y2="78" stroke="#858585" stroke-width="2"/>
<line x1="61" y1="78" x2="109" y2="78" stroke="#858585" stroke-width="2"/>
<line x1="131" y1="78" x2="140" y2="78" stroke="#858585" stroke-width="2"/>
<!-- Рулон плёнки -->
<rect x="5" y="30" width="18" height="35" rx="9" fill="none" stroke="#e11d48" stroke-width="2"/>
<path d="M14 65 L14 85 Q14 90, 25 90 L50 78" stroke="#e11d48" stroke-width="2" fill="none" stroke-dasharray="4 3"/>
</svg>
