<svg width="163" height="120" viewBox="0 0 163 120" fill="none" xmlns="http://www.w3.org/2000/svg">
<g clip-path="url(#clip0_3216_35)">
<path fill-rule="evenodd" clip-rule="evenodd" d="M85.251 3.50286L83.5737 7.78998C83.4444 8.34406 82.6416 10.0343 82.6416 10.213V10.7724C82.6416 11.2876 83.2486 11.6731 83.5737 11.8908L121.039 12.0771C122.86 12.1179 125.14 14.6899 125.14 16.3642V17.4826H120.294H106.873H93.8253H80.4049H67.1705H41.0755H36.0427C36.0427 14.7254 37.8501 12.1323 40.3298 12.0771L77.6088 11.8908C78.0688 11.4909 78.5408 11.2762 78.5408 10.3997V10.213C78.5408 9.7096 78.452 9.6994 78.3545 9.28101L75.693 2.9639L85.4373 2.94387L85.251 3.50286ZM127.004 20.465C127.571 20.0704 128.122 19.8803 128.122 18.7873V17.4826C128.122 13.5961 125.063 9.55389 121.785 9.28101C121.201 9.23263 121.123 9.09468 120.48 9.09468L86.0984 9.05953L86.742 7.78998C87.0444 6.49323 88.9791 2.61808 88.9791 1.82551V1.26614C88.9791 0.75099 88.3721 0.365479 88.0471 0.147778C85.189 0.147778 82.331 0.147778 79.4729 0.147778C77.1885 0.147778 72.2033 -0.695435 72.2033 1.6388C72.2033 2.86299 74.8823 7.68794 74.9994 9.09468H40.3298C36.9747 9.09468 33.0603 13.2809 33.0603 16.7369V19.1599C33.0603 21.332 41.1315 20.465 43.4986 20.465C47.475 20.465 51.4515 20.465 55.4279 20.465C63.3808 20.465 71.3337 20.465 79.2865 20.465C95.1923 20.465 111.098 20.465 127.004 20.465Z" fill="#e11d48"/>
<path class="icon-animation-8" fill-rule="evenodd" clip-rule="evenodd" d="M45.1759 24.1928V27.1752C45.1759 27.9307 45.3766 28.8525 46.1083 28.8525H47.04C47.6424 28.8525 47.9716 28.176 47.9716 27.5478V24.1928C47.9716 23.7437 47.3023 23.0748 46.8537 23.0748H46.2947C45.8457 23.0748 45.1759 23.7437 45.1759 24.1928ZM96.435 45.5119V47.9354C96.435 48.7037 97.0613 49.6131 97.7397 49.6131C98.4208 49.6131 99.2311 49.0983 99.2311 48.4944V44.9529C99.2311 44.0829 98.7965 43.6483 97.926 43.6483H97.5534C96.7876 43.6483 96.435 44.6733 96.435 45.5119ZM96.435 35.5158V37.9393C96.435 38.7077 97.0613 39.6166 97.7397 39.6166C98.4208 39.6166 99.2311 39.1022 99.2311 38.4983V34.9568C99.2311 34.0864 98.7965 33.6522 97.926 33.6522H97.5534C96.7876 33.6522 96.435 34.6768 96.435 35.5158ZM96.435 24.9388V27.3615C96.435 28.1303 97.0613 29.0392 97.7397 29.0392C98.4208 29.0392 99.2311 28.5245 99.2311 27.9205V24.3791C99.2311 23.509 98.7965 23.0748 97.926 23.0748H97.5534C96.7876 23.0748 96.435 24.0994 96.435 24.9388ZM54.1228 44.2072L53.9365 48.4944C54.0627 48.9664 54.2967 49.4264 54.8685 49.4264H55.4279C56.0557 49.4264 56.7326 49.0972 56.7326 48.4944V44.7666C56.7326 44.318 56.0629 43.6483 55.6146 43.6483H55.0549C54.6013 43.6483 54.3726 43.9903 54.1228 44.2072ZM54.1228 34.2111L53.9365 38.4983C54.0627 38.9703 54.2967 39.4299 54.8685 39.4299H55.4279C56.0557 39.4299 56.7326 39.1007 56.7326 38.4983V34.7701C56.7326 34.3215 56.0629 33.6522 55.6146 33.6522H55.0549C54.6013 33.6522 54.3726 33.9942 54.1228 34.2111ZM54.1228 23.6338L53.9365 27.9205C54.0627 28.3929 54.2967 28.8525 54.8685 28.8525H55.4279C56.0557 28.8525 56.7326 28.5233 56.7326 27.9205V24.1928C56.7326 23.7437 56.0629 23.0748 55.6146 23.0748H55.0549C54.6013 23.0748 54.3726 23.4168 54.1228 23.6338ZM122.717 44.9529V48.4944C122.717 48.9286 123.214 49.4264 123.648 49.4264H124.208C124.922 49.4264 125.512 48.8882 125.512 48.308V44.7666C125.512 44.318 124.843 43.6483 124.395 43.6483H124.021C123.151 43.6483 122.717 44.0829 122.717 44.9529ZM122.717 34.9568V38.4983C122.717 38.9329 123.214 39.4299 123.648 39.4299H124.208C124.922 39.4299 125.512 38.8921 125.512 38.3116V34.7701C125.512 34.3215 124.843 33.6522 124.395 33.6522H124.021C123.151 33.6522 122.717 34.0864 122.717 34.9568ZM122.717 24.3791V27.9205C122.717 28.3555 123.214 28.8525 123.648 28.8525H124.208C124.922 28.8525 125.512 28.3143 125.512 27.7342V24.1928C125.512 23.7437 124.843 23.0748 124.395 23.0748H124.021C123.151 23.0748 122.717 23.509 122.717 24.3791ZM36.415 45.3256V47.749C36.415 48.9403 36.9366 49.6131 38.0927 49.6131C38.5417 49.6131 39.2114 48.943 39.2114 48.4944V44.9529C39.2114 44.0829 38.7768 43.6483 37.9064 43.6483C36.9449 43.6483 36.415 44.4242 36.415 45.3256ZM36.415 35.3295V37.7526C36.415 38.9439 36.9366 39.6166 38.0927 39.6166C38.5417 39.6166 39.2114 38.9465 39.2114 38.4983V34.9568C39.2114 34.0864 38.7768 33.6522 37.9064 33.6522C36.9449 33.6522 36.415 34.4281 36.415 35.3295ZM36.415 24.7517V27.1752C36.415 28.3669 36.9366 29.0392 38.0927 29.0392C38.5417 29.0392 39.2114 28.3695 39.2114 27.9205V24.3791C39.2114 23.509 38.7768 23.0748 37.9064 23.0748C36.9449 23.0748 36.415 23.8503 36.415 24.7517ZM107.246 49.4264C107.564 49.2136 107.991 49.0209 107.991 48.4944V44.7666C107.991 44.2515 107.385 43.866 107.059 43.6483H106.128C105.803 43.866 105.195 44.2515 105.195 44.7666V48.1217C105.195 49.3674 105.985 49.4264 107.246 49.4264ZM107.246 39.4299C107.564 39.2171 107.991 39.0248 107.991 38.4983V34.7701C107.991 34.2554 107.385 33.8691 107.059 33.6522H106.128C105.803 33.8691 105.195 34.2554 105.195 34.7701V38.1256C105.195 39.3713 105.985 39.4299 107.246 39.4299ZM107.246 28.8525C107.564 28.6397 107.991 28.447 107.991 27.9205V24.1928C107.991 23.6776 107.385 23.2921 107.059 23.0748H106.128C105.803 23.2921 105.195 23.6776 105.195 24.1928V27.5478C105.195 28.7936 105.985 28.8525 107.246 28.8525ZM62.5107 44.9529V48.308C62.5107 48.757 63.1805 49.4264 63.6291 49.4264H64.1881C64.9032 49.4264 65.4935 48.8882 65.4935 48.308V45.5119C65.4935 44.4004 65.1133 43.6483 64.0021 43.6483C63.2111 43.6483 62.5107 44.3429 62.5107 44.9529ZM62.5107 34.9568V38.3116C62.5107 38.7606 63.1805 39.4299 63.6291 39.4299H64.1881C64.9032 39.4299 65.4935 38.8921 65.4935 38.3116V35.5158C65.4935 34.4039 65.1133 33.6522 64.0021 33.6522C63.2111 33.6522 62.5107 34.3465 62.5107 34.9568ZM62.5107 24.3791V27.7342C62.5107 28.1836 63.1805 28.8525 63.6291 28.8525H64.1881C64.9032 28.8525 65.4935 28.3143 65.4935 27.7342V24.9388C65.4935 23.8265 65.1133 23.0748 64.0021 23.0748C63.2111 23.0748 62.5107 23.7691 62.5107 24.3791ZM113.956 44.9529V48.1217C113.956 48.7499 114.286 49.4264 114.888 49.4264H115.82C116.551 49.4264 116.752 48.5046 116.752 47.749V44.7666C116.752 44.318 116.083 43.6483 115.634 43.6483H115.261C114.391 43.6483 113.956 44.0829 113.956 44.9529ZM113.956 34.9568V38.1256C113.956 38.7538 114.286 39.4299 114.888 39.4299H115.82C116.551 39.4299 116.752 38.5081 116.752 37.7526V34.7701C116.752 34.3215 116.083 33.6522 115.634 33.6522H115.261C114.391 33.6522 113.956 34.0864 113.956 34.9568ZM113.956 24.3791V27.5478C113.956 28.176 114.286 28.8525 114.888 28.8525H115.82C116.551 28.8525 116.752 27.9307 116.752 27.1752V24.1928C116.752 23.7437 116.083 23.0748 115.634 23.0748H115.261C114.391 23.0748 113.956 23.509 113.956 24.3791ZM71.2713 44.7666V47.9354C71.2713 48.6164 71.7857 49.4264 72.3904 49.4264H73.135C73.5844 49.4264 74.2537 48.757 74.2537 48.308V45.5119C74.2537 44.4004 73.8735 43.6483 72.7627 43.6483C72.0816 43.6483 71.2713 44.1626 71.2713 44.7666ZM71.2713 34.7701V37.9393C71.2713 38.6207 71.7857 39.4299 72.3904 39.4299H73.135C73.5844 39.4299 74.2537 38.7606 74.2537 38.3116V35.5158C74.2537 34.4039 73.8735 33.6522 72.7627 33.6522C72.0816 33.6522 71.2713 34.1666 71.2713 34.7701ZM71.2713 24.1928V27.3615C71.2713 28.043 71.7857 28.8525 72.3904 28.8525H73.135C73.5844 28.8525 74.2537 28.1836 74.2537 27.7342V24.9388C74.2537 23.8265 73.8735 23.0748 72.7627 23.0748C72.0816 23.0748 71.2713 23.5888 71.2713 24.1928ZM80.9639 49.4264C81.2893 49.2087 81.8963 48.8236 81.8963 48.308V44.7666C81.8963 44.1721 81.2742 43.7809 80.7776 43.6483C79.951 43.6483 79.1002 43.8059 79.1002 44.5803V48.4944C79.1002 49.0209 79.5277 49.2136 79.8455 49.4264H80.9639ZM80.9639 39.4299C81.2893 39.2122 81.8963 38.8271 81.8963 38.3116V34.7701C81.8963 34.1756 81.2742 33.7844 80.7776 33.6522C79.951 33.6522 79.1002 33.809 79.1002 34.5838V38.4983C79.1002 39.0248 79.5277 39.2171 79.8455 39.4299H80.9639ZM80.9639 28.8525C81.2893 28.6348 81.8963 28.2497 81.8963 27.7342V24.1928C81.8963 23.5979 81.2742 23.2067 80.7776 23.0748C79.951 23.0748 79.1002 23.2312 79.1002 24.0064V27.9205C79.1002 28.447 79.5277 28.6397 79.8455 28.8525H80.9639ZM87.6744 45.5119V48.308C87.6744 48.757 88.3438 49.4264 88.7928 49.4264H89.5385C89.9871 49.4264 90.6565 48.757 90.6565 48.308V45.1393C90.6565 44.2379 90.0673 43.6483 89.1658 43.6483C88.0547 43.6483 87.6744 44.4004 87.6744 45.5119ZM87.6744 35.5158V38.3116C87.6744 38.7606 88.3438 39.4299 88.7928 39.4299H89.5385C89.9871 39.4299 90.6565 38.7606 90.6565 38.3116V35.1432C90.6565 34.2418 90.0673 33.6522 89.1658 33.6522C88.0547 33.6522 87.6744 34.4039 87.6744 35.5158ZM87.6744 24.9388V27.7342C87.6744 28.1836 88.3438 28.8525 88.7928 28.8525H89.5385C89.9871 28.8525 90.6565 28.1836 90.6565 27.7342V24.5658C90.6565 23.664 90.0673 23.0748 89.1658 23.0748C88.0547 23.0748 87.6744 23.8265 87.6744 24.9388ZM45.1759 44.7666V47.749C45.1759 48.5046 45.3766 49.4264 46.1083 49.4264H47.04C47.6424 49.4264 47.9716 48.7499 47.9716 48.1217V44.7666C47.9716 44.318 47.3023 43.6483 46.8537 43.6483H46.2947C45.8457 43.6483 45.1759 44.318 45.1759 44.7666ZM45.1759 34.7701V37.7526C45.1759 38.5081 45.3766 39.4299 46.1083 39.4299H47.04C47.6424 39.4299 47.9716 38.7538 47.9716 38.1256V34.7701C47.9716 34.3215 47.3023 33.6522 46.8537 33.6522H46.2947C45.8457 33.6522 45.1759 34.3215 45.1759 34.7701Z" fill="#e11d48"/>
<path fill-rule="evenodd" clip-rule="evenodd" d="M45.1548 101.737C45.1548 100.859 45.3033 101.19 45.5701 100.076H115.319C116.275 100.076 116.564 100.365 116.564 101.322V101.737C116.564 102.694 116.275 102.983 115.319 102.983H46.8155C46.0135 102.983 45.1548 102.242 45.1548 101.737ZM30.624 99.6612C30.624 97.8845 31.9037 96.3398 33.5301 96.3398C35.3068 96.3398 36.8515 97.6195 36.8515 99.2459C36.8515 101.184 35.8836 102.152 33.9454 102.152H32.6997C31.6509 102.152 30.624 100.432 30.624 99.6612ZM128.604 102.152H127.774C126.806 102.152 125.698 101.045 125.698 100.076V98.4159C125.698 97.4476 126.806 96.3398 127.774 96.3398H129.019C130.71 96.3398 130.953 98.0852 131.511 99.2459C130.735 100.861 131.119 102.152 128.604 102.152ZM45.1548 96.3398C45.1548 95.3681 45.8438 94.6791 46.8155 94.6791H115.319C116.275 94.6791 116.564 94.9682 116.564 95.9244V96.3398C116.564 97.2964 116.275 97.5855 115.319 97.5855H46.4005C45.4435 97.5855 45.1548 97.2964 45.1548 96.3398ZM107.015 89.6973H54.7037C53.7358 89.6973 52.6276 88.5891 52.6276 87.6212V86.7908C52.6276 83.5782 56.6513 79.3179 59.2705 79.3179H101.203C108.438 79.3179 111.939 89.6973 107.015 89.6973ZM31.039 82.6394V80.9786C31.039 77.5208 35.5729 73.5054 39.3426 73.5054C43.3663 73.5054 48.0608 77.116 48.0608 80.9786V83.4694C48.0608 86.9866 44.0111 90.9426 40.1726 90.9426H39.3426C35.0453 90.9426 31.039 86.9367 31.039 82.6394ZM113.658 82.224C113.658 78.0688 117.812 73.5054 121.546 73.5054C126.81 73.5054 131.095 77.02 131.095 82.224C131.095 86.9284 127.065 90.9426 122.377 90.9426C117.691 90.9426 113.658 86.9091 113.658 82.224ZM22.7354 101.737C22.7354 105.307 24.3216 107.965 27.7179 107.965H133.171C136.009 107.965 138.983 106.137 138.983 103.398V84.2997C138.983 76.2486 131.033 67.2779 124.037 67.2779H39.7576C31.2136 67.2779 22.7354 75.4484 22.7354 84.2997V101.737Z" fill="#FEFEFE"/>
<path d="M128.493 102.516C130.268 102.516 131.706 101.078 131.706 99.3037C131.706 97.5294 130.268 96.0911 128.493 96.0911C126.719 96.0911 125.281 97.5294 125.281 99.3037C125.281 101.078 126.719 102.516 128.493 102.516Z" fill="#858585" stroke="#858585" stroke-width="0.288"/>
<path fill-rule="evenodd" clip-rule="evenodd" d="M36.8515 64.3714H124.868C124.746 62.9125 119.964 54.3266 118.981 52.8204C117.315 50.2689 112.056 45.6888 108.261 45.6888H55.5341C50.2223 45.6888 45.4375 48.8175 43.3126 52.1499C42.3261 53.6969 36.9467 63.2243 36.8515 64.3714Z" fill="#FEFEFE"/>
<path fill-rule="evenodd" clip-rule="evenodd" d="M26.0568 115.438V110.871H41.0033L40.9485 115.212C40.9345 116.347 40.5914 116.683 38.9272 116.683H27.3025C26.3459 116.683 26.0568 116.394 26.0568 115.438ZM120.716 114.192V110.871H136.077V115.022C136.077 115.994 135.388 116.683 134.416 116.683H122.377C121.101 116.683 120.716 115.467 120.716 114.192ZM22.7354 101.737V84.2997C22.7354 75.4484 31.2136 67.2779 39.7576 67.2779H124.037C131.033 67.2779 138.983 76.2486 138.983 84.2997V103.398C138.983 106.137 136.009 107.965 133.171 107.965H27.7179C24.3216 107.965 22.7354 105.307 22.7354 101.737ZM36.8515 64.3714C36.9468 63.2243 42.3262 53.6969 43.3126 52.1499C45.4375 48.8175 50.2224 45.6888 55.5341 45.6888H108.261C112.056 45.6888 117.315 50.2689 118.981 52.8204C119.964 54.3266 124.746 62.9125 124.868 64.3714H36.8515ZM134.416 58.9742C134.416 58.0025 135.106 57.3139 136.077 57.3139H143.135C144.107 57.3139 144.796 58.0025 144.796 58.9742V63.1261H134.416V58.9742ZM16.9232 59.3896C16.8824 57.3456 19.7597 57.5274 22.7123 57.6038C25.1592 57.6673 27.6639 57.1483 27.6812 59.2256L27.7179 63.5414H18.1686C17.2123 63.5414 16.9232 63.2527 16.9232 62.2957V59.3896ZM143.965 66.4475C146.938 66.5726 148.153 65.2668 148.117 63.1261V59.3896C148.1 55.2692 146.556 53.9747 141.475 53.9924H136.908C132.994 53.9913 130.893 55.2344 130.974 59.0672L131.078 63.9999L128.204 63.9893C127.762 62.1532 121.969 51.8317 120.806 50.1657C118.322 46.6065 112.95 42.7827 107.015 42.7827H54.7037C48.661 42.7827 43.4778 46.6779 40.9943 50.2469C39.8744 51.8559 34.1677 61.8954 33.7353 63.5161L30.6157 63.5921C30.6251 60.1773 31.415 53.862 26.0568 54.4074H19.4143C16.0649 54.4074 14.0171 55.9858 14.0171 59.3896V63.1261C14.0171 64.6435 15.1627 66.4475 16.5082 66.4475H27.3025L30.5612 66.3901C24.8235 71.4901 19.8297 74.0281 19.8297 85.1301V104.228C19.8297 106.302 21.8426 108.292 22.7354 109.625C22.402 115.466 21.7213 119.968 27.7179 119.59H39.7576C41.8564 119.59 43.9094 118.092 43.9094 115.853V110.871H117.809V116.268C117.809 118.019 120.307 119.59 122.377 119.59H134.832C136.881 119.59 138.152 117.925 138.983 116.683V109.625C139.959 108.169 141.89 106.607 141.89 104.228V82.6394C141.89 74.0988 135.527 70.3 131.095 66.4475L136.494 66.4123L143.965 66.4475Z" fill="#858585"/>
<path fill-rule="evenodd" clip-rule="evenodd" d="M116.979 82.224V83.0544C116.979 85.4117 119.831 88.0362 121.546 88.0362H121.961C124.955 88.0362 127.774 85.9457 127.774 83.0544V82.224C127.774 79.3406 126.014 76.8268 123.207 76.8268H121.546C118.914 76.8268 116.979 79.4721 116.979 82.224Z" fill="#FEFEFE"/>
<path fill-rule="evenodd" clip-rule="evenodd" d="M55.9491 86.7908H106.185C105.572 84.1572 104.452 82.6394 101.203 82.6394H59.6859C57.1691 82.6394 56.1453 84.4362 55.9491 86.7908Z" fill="#FEFEFE"/>
<path fill-rule="evenodd" clip-rule="evenodd" d="M55.9491 86.7908C56.1453 84.4362 57.1691 82.6394 59.6859 82.6394H101.203C104.452 82.6394 105.572 84.1572 106.185 86.7908H55.9491ZM107.015 89.6973C111.939 89.6973 108.438 79.3179 101.203 79.3179H59.2706C56.6513 79.3179 52.6277 83.5782 52.6277 86.7908V87.6212C52.6277 88.5891 53.7358 89.6973 54.7037 89.6973H107.015Z" fill="#858585"/>
<path fill-rule="evenodd" clip-rule="evenodd" d="M116.938 95.9244C116.938 94.9682 116.649 94.6791 115.693 94.6791H114.744H47.1897H46.241C45.2844 94.6791 44.9956 94.9682 44.9956 95.9244V96.3398C44.9956 97.2964 45.2844 97.5855 46.241 97.5855H46.7747H115.159H115.693C116.649 97.5855 116.938 97.2964 116.938 96.3398V95.9244ZM115.738 100.076H115.99L115.992 100.087C116.711 100.149 116.938 100.473 116.938 101.322V101.737C116.938 102.694 116.649 102.983 115.693 102.983H114.744H47.1897H46.241C45.2844 102.983 44.9956 102.694 44.9956 101.737V101.322C44.9956 100.474 45.2232 100.15 45.9417 100.087L45.9443 100.076H46.1971H115.693H115.738Z" fill="#858585"/>
<path fill-rule="evenodd" clip-rule="evenodd" d="M17.3367 84.8425C18.0703 75.5887 20.6339 72.2241 23.1507 69.3536H20.2446C16.9444 69.3536 14.0836 78.6852 14.0171 84.7147V103.398C14.0171 106.675 14.4654 106.015 17.3185 105.374L17.3367 84.8425Z" fill="#858585"/>
<path fill-rule="evenodd" clip-rule="evenodd" d="M144.888 84.8425C144.155 75.5887 141.591 72.2241 139.074 69.3536H141.98C145.28 69.3536 148.141 78.6852 148.208 84.7147V103.398C148.208 106.675 147.759 106.015 144.906 105.374L144.888 84.8425Z" fill="#858585"/>
<path fill-rule="evenodd" clip-rule="evenodd" d="M120.716 114.192C120.716 115.467 121.101 116.683 122.377 116.683H134.416C135.388 116.683 136.077 115.994 136.077 115.022V110.871H120.716V114.192Z" fill="#FEFEFE"/>
<path d="M33.6408 102.516C35.4151 102.516 36.8534 101.078 36.8534 99.3037C36.8534 97.5294 35.4151 96.0911 33.6408 96.0911C31.8665 96.0911 30.4282 97.5294 30.4282 99.3037C30.4282 101.078 31.8665 102.516 33.6408 102.516Z" fill="#858585" stroke="#858585" stroke-width="0.288"/>
<path d="M39.5501 91.0711C44.4362 91.0711 48.3972 87.1101 48.3972 82.224C48.3972 77.3379 44.4362 73.3769 39.5501 73.3769C34.664 73.3769 30.703 77.3379 30.703 82.224C30.703 87.1101 34.664 91.0711 39.5501 91.0711Z" fill="#858585" stroke="#858585" stroke-width="0.288"/>
<path d="M39.5501 88.0573C42.7717 88.0573 45.3834 85.4457 45.3834 82.224C45.3834 79.0023 42.7717 76.3907 39.5501 76.3907C36.3284 76.3907 33.7168 79.0023 33.7168 82.224C33.7168 85.4457 36.3284 88.0573 39.5501 88.0573Z" fill="white" stroke="#858585" stroke-width="0.288"/>
<path d="M122.183 91.0711C127.069 91.0711 131.03 87.1101 131.03 82.224C131.03 77.3379 127.069 73.3769 122.183 73.3769C117.297 73.3769 113.336 77.3379 113.336 82.224C113.336 87.1101 117.297 91.0711 122.183 91.0711Z" fill="#858585" stroke="#858585" stroke-width="0.288"/>
<path d="M122.183 88.0573C125.405 88.0573 128.016 85.4457 128.016 82.224C128.016 79.0023 125.405 76.3907 122.183 76.3907C118.961 76.3907 116.35 79.0023 116.35 82.224C116.35 85.4457 118.961 88.0573 122.183 88.0573Z" fill="white" stroke="#858585" stroke-width="0.288"/>
</g>
<defs>
<clipPath id="clip0_3216_35">
<rect width="162.225" height="119.611" fill="white"/>
</clipPath>
</defs>
</svg>