<svg xmlns="http://www.w3.org/2000/svg" width="338" height="42" viewBox="0 0 338 42"><path fill="#FFF" d="M12.3 1.5h17.4v8.2H13.1c-1.6 0-2.7.4-3.5 1.2-.8.8-1.2 2-1.2 3.6V28c0 1.6.4 2.7 1.2 3.5.8.8 2 1.2 3.5 1.2h16.6V41H12.3c-3.8 0-6.9-1.1-9-3.3C1.1 35.5 0 32.5 0 28.6V13.9C0 10 1.1 7 3.3 4.8c2.2-2.2 5.2-3.3 9-3.3z"/><path fill="#E9228F" d="M43.3 11.7h14.4v7.1h-14c-1.1 0-1.8.2-2.1.5-.3.3-.5 1-.5 2v1.4h16.7v7.1H41.1v1.6c0 1 .2 1.7.5 2 .3.3 1 .5 2.1.5h14.1V41H43.3c-3.4 0-5.9-.7-7.4-2.2-1.5-1.5-2.2-3.9-2.2-7.3V21.2c0-3.4.7-5.8 2.2-7.3s4-2.2 7.4-2.2z"/><path fill="#FFF" d="M62.5 11.7H79c3.2 0 5.6.6 7.1 1.7 1.6 1.1 2.4 2.9 2.4 5.2v3.2c0 1.5-.3 2.7-.9 3.5-.6.8-1.5 1.4-2.8 1.7.8.3 1.4.7 1.9 1.2.4.5.8 1.5 1.1 2.8L90 41h-7.8l-1.6-7.6c-.2-.9-.5-1.5-.9-2s-.9-.7-1.5-.7h-5.7v-6.9h6.4c.8 0 1.3-.1 1.7-.3.3-.2.5-.6.5-1.1v-1.7c0-.5-.2-.9-.5-1.2-.4-.2-.9-.4-1.6-.4h-9v22h-7.3V11.7z"/><path fill="#FFF" d="M112.3 16.9l8 24h-7.7l-6.6-21c-.1-.5-.3-.8-.6-1.1-.2-.2-.5-.3-.9-.3s-.6.1-.9.3c-.2.2-.4.6-.6 1.1L96.5 41h-7.7l8-24c.6-1.8 1.6-3.2 2.9-4.2 1.4-1 3-1.5 4.9-1.5 1.9 0 3.5.5 4.8 1.4 1.2.9 2.2 2.4 2.9 4.2zm26.5 1.8l1.2 5.9c.1.4.2.6.5.8.3.2.6.3 1 .3s.7-.1 1-.3c.3-.2.4-.5.5-.9l1.2-5.9c.5-2.5 1.6-4.4 3.1-5.6 1.5-1.2 3.6-1.9 6.1-1.9 2.8 0 5 .8 6.7 2.3s2.5 3.6 2.5 6.1V41h-7.4V21c0-.8-.2-1.4-.5-1.8-.3-.4-.8-.7-1.4-.7-.6 0-1.1.2-1.4.6-.4.4-.7 1.1-.9 2.2l-1.4 5.4c-.5 2-1.5 3.6-2.9 4.7s-3.2 1.7-5.2 1.7c-2.1 0-3.8-.6-5.2-1.7-1.4-1.1-2.4-2.7-2.9-4.8l-1.4-5.4c-.3-1-.6-1.7-.9-2.2-.4-.4-.8-.6-1.4-.6-.6 0-1.1.2-1.4.7-.3.4-.5 1.1-.5 1.8v20h-7.3V19.7c0-2.5.8-4.6 2.5-6.1s3.9-2.3 6.7-2.3c2.5 0 4.5.6 6.1 1.9 1.4 1.2 2.5 3 3 5.5zm28.6-7h7.3V41h-7.3V11.7zm21.8 0h13V19h-11.8c-1.2 0-2.1.3-2.7 1-.6.7-1 1.6-1 2.7v7.4c0 1.2.3 2.1 1 2.7.6.6 1.6 1 2.7 1h11.8V41h-13c-3.1 0-5.6-.9-7.3-2.6-1.7-1.7-2.6-4.2-2.6-7.3v-9.4c0-3.1.9-5.6 2.6-7.3 1.8-1.8 4.2-2.7 7.3-2.7zm38.3-10.2h21.9c3.8 0 6.7.8 8.6 2.3 1.9 1.6 2.8 3.9 2.8 7v5.9c0 3.1-1 5.5-2.9 7.1-1.9 1.6-4.8 2.4-8.5 2.4h-13.5V41h-8.4V1.5zm8.4 8.3V18h12.4c1.4 0 2.4-.3 3.1-.8.7-.5 1.1-1.3 1.1-2.3V13c0-1-.4-1.8-1.1-2.3-.7-.5-1.7-.8-3.1-.8h-12.4zm28.6 1.9h16.4c3.2 0 5.6.6 7.1 1.7 1.6 1.1 2.4 2.9 2.4 5.2v3.2c0 1.5-.3 2.7-.9 3.5-.6.8-1.5 1.4-2.8 1.7.8.3 1.4.7 1.9 1.2.4.5.8 1.5 1.1 2.8l2.2 9.8h-7.8l-1.6-7.6c-.2-.9-.5-1.5-.9-2s-.9-.7-1.5-.7h-5.7v-6.9h6.4c.8 0 1.3-.1 1.7-.3.3-.2.5-.6.5-1.1v-1.7c0-.5-.2-.9-.5-1.2-.4-.2-.9-.4-1.6-.4h-9v22h-7.3V11.7zm39.5-.5h8.8c3.1 0 5.6.9 7.3 2.6 1.7 1.7 2.6 4.2 2.6 7.3v10.5c0 3.1-.9 5.6-2.6 7.3-1.7 1.7-4.2 2.6-7.3 2.6H304c-3.1 0-5.6-.9-7.3-2.6-1.7-1.7-2.6-4.2-2.6-7.3V21.1c0-3.1.9-5.6 2.6-7.3 1.7-1.7 4.2-2.6 7.3-2.6zm-2.5 11v8.4c0 1.2.3 2.1 1 2.7s1.6 1 2.7 1h6.4c1.2 0 2.1-.3 2.7-1s1-1.6 1-2.7v-8.4c0-1.2-.3-2.1-1-2.7-.6-.6-1.6-1-2.7-1h-6.4c-1.2 0-2.1.3-2.7 1-.7.6-1 1.5-1 2.7zM331.3 0c3.8 0 6.7 2.9 6.7 6.5 0 3.7-2.9 6.6-6.7 6.6-3.7 0-6.7-2.9-6.7-6.6 0-3.7 3.1-6.5 6.7-6.5zm0 11.8c2.9 0 5.1-2.3 5.1-5.3 0-2.9-2.2-5.3-5.1-5.3-2.9 0-5.1 2.4-5.1 5.3 0 3.2 2.4 5.3 5.1 5.3zm-2.5-1.8V3.3c.6-.1 1.4-.2 2.4-.2 1.2 0 2.9.2 2.9 1.9 0 .8-.6 1.3-1.4 1.5v.1c.6.2 1 .8 1.1 1.6.2 1 .4 1.4.5 1.7h-1.5c-.2-.3-.3-.8-.5-1.7-.3-1-.8-1-2.2-1V10h-1.3zm1.5-3.8c1.1 0 2.3 0 2.3-1 0-.6-.4-1-1.5-1-.4 0-.7 0-.9.1v1.9z"/></svg>