<svg id="a" xmlns="http://www.w3.org/2000/svg" width="286" height="58" viewBox="0 0 286 58"><path d="M76.258,4.702c1.104,0,2.15.16,3.132.478.956.304,1.85.774,2.642,1.39.784.618,1.438,1.385,1.923,2.258.506.9.825,1.929.956,3.09h-4.27c-.071-.493-.243-.966-.505-1.39-.264-.422-.596-.797-.984-1.109-.399-.321-.85-.573-1.333-.744-.501-.179-1.028-.269-1.56-.267-.993,0-1.835.193-2.53.575-.677.371-1.255.901-1.683,1.544-.442.673-.76,1.419-.94,2.203-.199.837-.298,1.695-.295,2.556,0,.843.097,1.66.295,2.457.197.795.51,1.511.94,2.147.431.637,1.008,1.161,1.683,1.53.695.384,1.537.575,2.53.575,1.35,0,2.4-.411,3.16-1.235.757-.823,1.223-1.91,1.391-3.255h4.27c-.115,1.252-.406,2.385-.871,3.396-.443.974-1.073,1.852-1.855,2.583-.78.717-1.696,1.271-2.694,1.628-1.033.374-2.166.561-3.402.561-1.535,0-2.915-.265-4.14-.8-1.227-.534-2.263-1.267-3.105-2.203-.844-.935-1.49-2.037-1.94-3.3-.45-1.263-.672-2.625-.672-4.084,0-1.498.222-2.886.672-4.17.45-1.28,1.096-2.399,1.94-3.354.842-.954,1.878-1.703,3.105-2.245,1.225-.544,2.605-.815,4.14-.815ZM157.46,10.317c1.236,0,2.313.238,3.231.716.893.457,1.667,1.115,2.261,1.923.6.826,1.034,1.761,1.278,2.752.26,1.029.356,2.106.282,3.228h-10.477c.056,1.29.381,2.227.984,2.808.598.58,1.46.87,2.581.87.805,0,1.5-.202,2.081-.605.58-.4.937-.828,1.067-1.277h3.51c-.563,1.741-1.422,2.985-2.583,3.734-1.161.749-2.566,1.124-4.215,1.124-1.142,0-2.173-.182-3.087-.549-.883-.341-1.68-.872-2.333-1.557-.65-.696-1.152-1.518-1.476-2.414-.346-.937-.516-1.965-.516-3.09,0-1.084.174-2.095.53-3.031.336-.904.853-1.73,1.518-2.429.666-.69,1.463-1.239,2.346-1.614.906-.392,1.914-.589,3.018-.589h0ZM110.245,10.317c1.234,0,2.312.238,3.231.716.893.456,1.667,1.115,2.26,1.923.6.827,1.034,1.761,1.28,2.752.26,1.029.354,2.106.28,3.228h-10.476c.056,1.29.382,2.227.984,2.808.598.58,1.46.87,2.581.87.808,0,1.5-.202,2.08-.605.581-.4.938-.828,1.068-1.277h3.51c-.56,1.741-1.422,2.985-2.582,3.734-1.163.749-2.567,1.124-4.215,1.124-1.142,0-2.173-.182-3.089-.549-.882-.341-1.679-.873-2.332-1.557-.65-.697-1.151-1.518-1.474-2.414-.348-.937-.518-1.965-.518-3.09,0-1.084.175-2.095.532-3.031.335-.904.851-1.73,1.515-2.429.666-.691,1.465-1.24,2.349-1.614.905-.392,1.912-.589,3.017-.589h0ZM148.136,10.71v14.513h-3.99v-14.513s3.99,0,3.99,0ZM136.254,10.317c.768,0,1.48.094,2.136.28.621.17,1.197.477,1.684.898.47.414.835.95,1.095,1.616.264.663.395,1.464.395,2.4v9.712h-3.988v-8.223c0-.487-.019-.945-.057-1.376-.026-.391-.132-.773-.31-1.122-.169-.32-.428-.584-.745-.76-.327-.185-.77-.28-1.331-.28-.564,0-1.017.108-1.365.324-.338.207-.617.496-.813.84-.199.348-.329.74-.395,1.18-.064.44-.097.885-.097,1.335v8.083h-3.988v-8.14c0-.43-.01-.855-.028-1.278-.02-.42-.1-.81-.241-1.165-.137-.352-.382-.651-.7-.855-.33-.216-.812-.323-1.447-.323-.19,0-.434.041-.744.125-.329.096-.635.258-.898.478-.292.234-.54.571-.746,1.01-.205.44-.308,1.015-.308,1.728v8.42h-3.99v-14.514h3.763v1.965h.057c.491-.717,1.139-1.313,1.896-1.741.739-.412,1.585-.617,2.541-.617.918,0,1.758.177,2.514.534.761.356,1.337.981,1.73,1.88.43-.637,1.016-1.198,1.753-1.684.742-.487,1.615-.73,2.627-.73ZM91.257,5.18v7.55h.083c.506-.84,1.153-1.454,1.94-1.838.788-.384,1.556-.575,2.305-.575,1.067,0,1.942.144,2.625.435.685.29,1.222.693,1.616,1.207.393.514.67,1.143.828,1.881.158.74.238,1.559.238,2.457v8.926h-3.99v-8.196c0-1.197-.185-2.092-.56-2.681-.376-.59-1.038-.884-1.993-.884-1.086,0-1.874.323-2.362.967-.485.647-.73,1.708-.73,3.187v7.607h-3.987V5.18h3.987ZM157.35,13.321c-.638,0-1.166.108-1.589.323-.42.216-.76.481-1.01.8-.255.319-.43.656-.535,1.01-.096.31-.156.63-.18.954h6.488c-.188-1.01-.521-1.777-.998-2.302-.48-.523-1.206-.785-2.176-.785h0ZM110.134,13.321c-.636,0-1.165.108-1.587.323-.748.358-1.309,1.015-1.545,1.81-.096.31-.157.63-.183.954h6.489c-.188-1.01-.52-1.777-.998-2.302-.478-.523-1.205-.785-2.176-.785ZM168.404,6.559c.451,0,.882.079,1.294.237.414.156.777.378,1.088.667.317.286.565.636.755,1.044.184.408.28.865.28,1.369,0,.509-.096.97-.28,1.378-.359.796-1.023,1.415-1.843,1.716-.414.154-.853.232-1.295.231-.45,0-.88-.078-1.293-.23-.403-.15-.774-.376-1.09-.668-.318-.297-.574-.654-.752-1.05-.191-.434-.286-.903-.28-1.377,0-.504.095-.96.28-1.37.178-.395.434-.749.752-1.043.317-.29.687-.516,1.09-.667.413-.158.851-.239,1.293-.237h0ZM168.404,7.272c-.348,0-.677.064-.983.194-.304.13-.57.311-.794.542-.23.237-.412.517-.535.824-.13.316-.195.665-.195,1.044s.064.73.195,1.05c.13.319.309.595.535.83.224.234.49.417.794.547.306.13.635.196.982.196.344,0,.67-.066.975-.196.306-.13.572-.313.797-.547.481-.507.746-1.181.739-1.88.007-.696-.258-1.366-.74-1.868-.466-.475-1.105-.741-1.771-.737h.001ZM168.485,8.008c.47,0,.83.084,1.08.25.253.165.378.45.378.853,0,.172-.027.318-.074.44-.045.115-.117.216-.21.297-.092.08-.199.141-.314.18-.123.043-.252.069-.382.079l.998,1.626h-.775l-.906-1.591h-.464v1.591h-.737v-3.725h1.406ZM168.44,8.587h-.624v.978h.659c.213,0,.389-.03.526-.089.136-.059.204-.201.204-.427,0-.1-.025-.18-.072-.24-.048-.06-.11-.107-.18-.137-.08-.034-.164-.057-.25-.068-.087-.011-.175-.017-.263-.017ZM148.136,5.178v3.285h-3.99v-3.285s3.99,0,3.99,0Z" fill="#999999" fill-rule="evenodd"/><path d="M223.551,37.923c1.14,0,2.124.216,2.948.645.802.413,1.502.998,2.051,1.713.558.743.968,1.586,1.208,2.484.26.945.393,1.934.393,2.962,0,.973-.134,1.91-.393,2.808-.245.863-.65,1.673-1.194,2.387-.535.692-1.215,1.258-1.994,1.656-.796.411-1.727.618-2.795.618-.898,0-1.73-.182-2.487-.549-.755-.361-1.4-.919-1.867-1.614h-.056v6.878h-3.989v-19.595h3.793v1.852h.056c.486-.785,1.103-1.355,1.854-1.711.748-.356,1.572-.534,2.472-.534h0ZM53.816,37.923c1.236,0,2.312.238,3.23.716.893.457,1.667,1.115,2.261,1.923.6.826,1.034,1.761,1.278,2.752.262,1.029.354,2.106.281,3.228h-10.476c.057,1.291.384,2.227.983,2.808.598.58,1.46.87,2.585.87.805,0,1.497-.201,2.077-.604.58-.402.937-.83,1.07-1.277h3.51c-.563,1.74-1.423,2.984-2.584,3.733-1.163.749-2.566,1.124-4.214,1.124-1.143,0-2.172-.182-3.09-.549-.882-.341-1.678-.873-2.331-1.558-.651-.695-1.152-1.517-1.474-2.413-.348-.937-.52-1.965-.52-3.09,0-1.083.177-2.095.534-3.031.335-.904.851-1.73,1.515-2.429.666-.69,1.464-1.239,2.347-1.614.906-.392,1.914-.589,3.02-.589h-.002ZM115.439,37.923c.862,0,1.691.112,2.487.337.767.211,1.491.558,2.135,1.025.625.457,1.147,1.04,1.531,1.712.393.684.617,1.494.673,2.428h-3.904c-.261-1.666-1.245-2.498-2.948-2.498-.638,0-1.172.146-1.601.434-.431.29-.782.666-1.055,1.125-.275.469-.47.981-.577,1.514-.11.553-.167,1.1-.167,1.644.002.538.058,1.074.167,1.6.114.542.297,1.034.549,1.473.254.44.594.801,1.025,1.08.432.282.956.423,1.574.423.954,0,1.69-.267,2.205-.8.513-.534.838-1.25.968-2.148h3.849c-.263,1.928-1.012,3.396-2.248,4.407-1.236,1.012-2.817,1.517-4.747,1.517-1.084,0-2.082-.182-2.991-.549-.872-.341-1.661-.862-2.317-1.529-.649-.674-1.155-1.471-1.49-2.345-.354-.907-.532-1.904-.532-2.988,0-1.124.164-2.167.49-3.13.33-.965.81-1.8,1.448-2.501.648-.71,1.444-1.271,2.331-1.642.918-.392,1.966-.589,3.145-.589ZM162.685,37.923c1.142,0,2.176.183,3.102.548.925.364,1.718.879,2.375,1.544.655.664,1.16,1.47,1.517,2.413.355.947.534,1.998.534,3.159s-.18,2.21-.534,3.144c-.332.898-.849,1.716-1.517,2.401-.673.674-1.483,1.196-2.375,1.53-.926.355-1.96.534-3.102.534s-2.173-.179-3.09-.533c-.887-.336-1.691-.858-2.36-1.53-.669-.685-1.186-1.504-1.517-2.402-.355-.934-.534-1.984-.534-3.144s.18-2.212.534-3.159c.356-.943.86-1.75,1.517-2.413.67-.674,1.474-1.201,2.36-1.544.917-.365,1.946-.548,3.09-.548ZM38.06,37.923c.862,0,1.69.112,2.485.337.767.211,1.491.558,2.135,1.025.626.456,1.147,1.04,1.531,1.712.393.684.617,1.494.674,2.428h-3.905c-.261-1.666-1.245-2.498-2.948-2.498-.638,0-1.172.146-1.601.434-.431.29-.782.666-1.054,1.125-.276.469-.471.98-.577,1.514-.226,1.07-.226,2.174,0,3.244.113.542.296,1.034.55,1.473.252.44.592.801,1.023,1.08.432.282.956.423,1.574.423.956,0,1.69-.267,2.205-.8.515-.534.836-1.25.968-2.148h3.847c-.26,1.928-1.012,3.396-2.244,4.407-1.237,1.012-2.821,1.517-4.749,1.517-1.084,0-2.082-.182-2.99-.549-.872-.341-1.662-.862-2.318-1.529-.649-.674-1.155-1.471-1.488-2.345-.356-.907-.534-1.904-.534-2.988,0-1.124.164-2.167.492-3.13.304-.925.796-1.776,1.446-2.501.648-.71,1.444-1.271,2.331-1.642.918-.392,1.966-.589,3.147-.589ZM238.83,37.923c1.236,0,2.313.238,3.23.716.892.457,1.666,1.115,2.26,1.923.601.825,1.035,1.76,1.278,2.752.263,1.029.357,2.106.28,3.228h-10.474c.055,1.291.382,2.227.982,2.808.6.58,1.462.87,2.585.87.804,0,1.498-.201,2.078-.604.58-.402.936-.83,1.068-1.277h3.51c-.562,1.74-1.423,2.984-2.584,3.733-1.16.749-2.565,1.124-4.213,1.124-1.142,0-2.173-.182-3.089-.549-.883-.341-1.68-.873-2.333-1.558-.651-.695-1.152-1.517-1.474-2.413-.347-.937-.52-1.965-.52-3.09,0-1.083.178-2.095.534-3.031.336-.904.853-1.73,1.518-2.429.665-.69,1.462-1.239,2.343-1.614.909-.392,1.915-.589,3.02-.589h.001ZM131.197,37.923c1.236,0,2.314.238,3.23.716.893.457,1.667,1.115,2.261,1.923.601.825,1.035,1.76,1.276,2.752.264,1.029.358,2.106.283,3.228h-10.476c.056,1.291.383,2.227.984,2.808.598.58,1.458.87,2.583.87.805,0,1.498-.201,2.079-.604.58-.402.937-.83,1.067-1.277h3.511c-.563,1.74-1.423,2.984-2.584,3.733s-2.566,1.124-4.214,1.124c-1.142,0-2.172-.182-3.087-.549-.883-.34-1.68-.872-2.332-1.558-.652-.695-1.154-1.516-1.476-2.413-.346-.937-.52-1.965-.52-3.09,0-1.083.177-2.095.534-3.031.336-.904.852-1.73,1.517-2.429.665-.69,1.463-1.239,2.345-1.614.907-.392,1.914-.589,3.02-.589h0ZM272.627,37.923c.786,0,1.549.075,2.288.224.742.15,1.4.403,1.981.758.58.356,1.064.829,1.448,1.418.383.59.612,1.334.687,2.232h-3.791c-.058-.766-.346-1.286-.871-1.558-.525-.271-1.142-.407-1.855-.407-.224,0-.467.014-.73.042-.262.028-.5.09-.716.182-.215.094-.398.23-.547.407-.15.179-.225.417-.225.717,0,.355.13.645.393.87s.605.407,1.026.548c.42.14.904.266,1.446.379.544.113,1.095.234,1.656.365.58.13,1.148.29,1.7.477.526.173,1.023.423,1.474.744.431.31.779.691,1.04,1.15.262.46.394,1.025.394,1.7,0,.953-.193,1.754-.575,2.4-.372.631-.887,1.164-1.504,1.558-.649.405-1.368.686-2.12.827-1.618.324-3.285.32-4.902-.013-.761-.151-1.488-.436-2.148-.843-.628-.393-1.157-.927-1.546-1.558-.403-.645-.624-1.455-.658-2.428h3.79c0,.431.088.8.267,1.109.179.31.408.561.686.757.295.202.625.35.972.436.365.094.744.14,1.137.14.281,0,.573-.032.884-.098.31-.066.591-.168.845-.31.252-.14.46-.326.63-.56.166-.233.253-.528.253-.885,0-.599-.398-1.047-1.194-1.348-.796-.299-1.905-.597-3.329-.898-.573-.129-1.139-.283-1.698-.462-.522-.164-1.018-.4-1.474-.702-.425-.282-.781-.657-1.04-1.096-.263-.438-.394-.977-.394-1.614,0-.935.183-1.703.548-2.302.354-.588.853-1.076,1.448-1.418.627-.356,1.311-.603,2.021-.73.75-.14,1.518-.21,2.303-.21ZM83.195,37.923c1.236,0,2.314.238,3.23.716.894.456,1.668,1.115,2.263,1.923.6.826,1.034,1.761,1.278,2.752.26,1.029.354,2.106.28,3.228h-10.478c.056,1.291.383,2.227.984,2.808.598.58,1.46.87,2.583.87.805,0,1.498-.201,2.079-.604.58-.402.937-.83,1.067-1.277h3.511c-.563,1.74-1.425,2.984-2.586,3.733-1.16.749-2.564,1.124-4.212,1.124-1.142,0-2.172-.182-3.089-.549-.882-.341-1.678-.873-2.33-1.558-.652-.695-1.154-1.516-1.476-2.413-.346-.937-.518-1.965-.518-3.09,0-1.083.175-2.095.533-3.031.335-.904.851-1.731,1.516-2.429.665-.69,1.463-1.239,2.345-1.614.907-.392,1.914-.589,3.02-.589h0ZM262.094,33.795v4.352h2.922v2.667h-2.922v7.188c0,1.348.337,1.685,1.686,1.685.42,0,.815-.028,1.236-.113v3.115c-.675.113-1.544.142-2.333.142-2.442,0-4.577-.563-4.577-3.453v-8.564h-1.496c-4.01.004-5.225,2.059-5.225,4.77v7.079h-3.99v-14.516h3.793v2.598h.056c.773-1.77,2.546-2.598,4.756-2.598h2.106v-4.352h3.988ZM285.94,48.507v4.324h-4.41v-4.324h4.41ZM100.525,37.923c1.067,0,1.943.145,2.628.435.682.29,1.22.693,1.613,1.207.395.516.671,1.143.83,1.882.158.738.238,1.558.238,2.456v8.927h-3.988v-8.197c0-1.197-.188-2.092-.561-2.68-.376-.592-1.04-.885-1.996-.885-1.086,0-1.872.321-2.359.968-.486.646-.73,1.71-.73,3.186v7.608h-3.989v-14.514h3.793v2.02h.083c.506-.84,1.162-1.454,1.966-1.838.77-.375,1.615-.572,2.472-.575ZM15,32.786v3.706H4.409v4.294h9.72v3.426H4.409v4.912h10.816v3.706H0v-20.044h15ZM180.857,37.923c.262,0,.553.047.872.141v3.706c-.224-.044-.449-.077-.676-.1-.252-.027-.505-.041-.758-.041-.73,0-1.347.122-1.853.365-.484.225-.904.567-1.222.995-.318.442-.542.944-.66,1.475-.135.599-.2,1.211-.196,1.825v6.54h-3.988v-14.512h3.791v2.695h.056c.187-.449.441-.866.76-1.25.317-.382.682-.71,1.094-.981.409-.27.853-.483,1.32-.633.469-.149.956-.224,1.46-.224h0ZM66.934,32.784v20.046h-3.989v-20.046h3.99,0ZM154.734,32.786v3.706h-9.689v4.631h8.398v3.426h-8.398v8.28h-4.411v-20.042h14.1,0ZM198.328,32.786v3.706h-10.588v4.294h9.718v3.426h-9.718v4.912h10.813v3.706h-15.223v-20.044h15-.002ZM73.758,32.784v20.046h-3.988v-20.046h3.99-.002ZM20.871,38.316l2.555,3.79,2.529-3.79h4.41l-4.777,6.795,5.366,7.719h-4.55l-3.036-4.577-3.033,4.577h-4.465l5.225-7.636-4.775-6.878h4.551ZM204.168,38.316l2.557,3.79,2.528-3.79h4.411l-4.776,6.795,5.365,7.719h-4.55l-3.035-4.577-3.033,4.577h-4.466l5.224-7.636-4.773-6.878h4.548ZM222.68,40.927c-.657,0-1.204.136-1.646.407-.431.265-.795.625-1.065,1.053-.272.43-.463.927-.576,1.488-.114.573-.17,1.157-.168,1.741,0,.579.06,1.15.182,1.711.122.562.318,1.053.59,1.475.272.42.632.763,1.082,1.024.449.262.991.394,1.629.394.655,0,1.203-.132,1.643-.394.431-.253.796-.604,1.067-1.024.271-.422.466-.913.575-1.475.113-.563.17-1.136.169-1.71,0-.581-.061-1.153-.183-1.714-.111-.533-.315-1.042-.603-1.503-.275-.433-.646-.798-1.083-1.066-.44-.271-.978-.407-1.613-.407h0ZM162.685,40.927c-.675,0-1.236.136-1.686.407-.45.272-.81.623-1.082,1.053-.27.43-.464.927-.575,1.488-.113.564-.169,1.137-.168,1.712,0,.58.055,1.146.168,1.699.111.552.304,1.047.575,1.487.272.441.631.792,1.082,1.053.45.262,1.011.394,1.686.394s1.239-.132,1.698-.394c.459-.26.824-.612,1.095-1.053.279-.457.475-.961.577-1.487.114-.56.17-1.129.169-1.7,0-.578-.056-1.15-.169-1.71-.099-.528-.295-1.033-.577-1.49-.276-.433-.651-.794-1.095-1.052-.459-.271-1.024-.407-1.698-.407ZM53.703,40.927c-.636,0-1.164.108-1.587.323-.42.216-.758.482-1.01.8-.253.32-.432.656-.533,1.01-.095.311-.157.632-.184.956h6.488c-.187-1.011-.52-1.779-.997-2.304-.477-.523-1.203-.785-2.177-.785ZM83.084,40.927c-.636,0-1.166.108-1.587.323-.748.358-1.309,1.015-1.545,1.81-.096.311-.157.632-.183.956h6.489c-.188-1.011-.52-1.779-.998-2.304-.476-.523-1.203-.785-2.176-.785ZM238.719,40.927c-.638,0-1.167.108-1.59.323-.42.216-.757.482-1.01.8-.253.32-.43.656-.533,1.01-.096.311-.157.632-.182.956h6.488c-.187-1.011-.521-1.779-.997-2.304-.478-.523-1.205-.785-2.176-.785h0ZM131.086,40.927c-.638,0-1.166.108-1.589.323-.42.216-.758.482-1.01.8-.253.32-.43.656-.533,1.01-.096.311-.157.632-.183.956h6.489c-.188-1.011-.52-1.779-.998-2.304-.478-.523-1.203-.785-2.176-.785h0ZM41.908,10.317c.86,0,1.688.111,2.482.337.798.224,1.51.567,2.136,1.025.626.456,1.148,1.039,1.532,1.712.394.684.618,1.494.674,2.428h-3.904c-.262-1.666-1.246-2.498-2.948-2.498-.638,0-1.171.146-1.603.434-.43.29-.782.666-1.053,1.124-.275.469-.469.981-.575,1.515-.226,1.07-.226,2.174,0,3.244.113.542.295,1.034.547,1.473.252.44.595.801,1.026,1.08.43.282.954.423,1.573.423.954,0,1.69-.268,2.204-.8.514-.534.838-1.25.968-2.148h3.85c-.262,1.928-1.011,3.396-2.247,4.407-1.236,1.01-2.82,1.517-4.747,1.517-1.087,0-2.083-.182-2.992-.549-.909-.365-1.682-.874-2.317-1.529-.649-.673-1.156-1.471-1.49-2.345-.354-.907-.533-1.904-.533-2.988-.009-1.064.157-2.121.492-3.131.304-.924.796-1.776,1.446-2.5.649-.711,1.445-1.271,2.333-1.642.918-.392,1.966-.589,3.146-.589h0ZM25.251,10.317c1.142,0,2.176.183,3.104.547.927.365,1.718.88,2.373,1.545.655.664,1.16,1.468,1.517,2.413.355.947.534,1.998.534,3.159s-.18,2.21-.534,3.144c-.332.898-.849,1.716-1.517,2.401-.672.675-1.481,1.196-2.373,1.529-.928.356-1.962.535-3.104.535s-2.173-.179-3.089-.535c-.887-.335-1.692-.856-2.36-1.529-.668-.685-1.186-1.503-1.518-2.4-.355-.936-.534-1.985-.534-3.145s.18-2.212.534-3.159c.356-.945.862-1.75,1.518-2.413.669-.675,1.474-1.201,2.36-1.545.916-.364,1.947-.547,3.089-.547ZM54.659,5.18v7.55h.084c.506-.84,1.152-1.454,1.938-1.838.787-.384,1.554-.575,2.303-.575,1.067,0,1.943.144,2.626.435.683.29,1.222.693,1.615,1.207s.67,1.143.83,1.881c.157.739.237,1.559.237,2.457v8.926h-3.987v-8.196c0-1.197-.188-2.092-.563-2.681-.376-.59-1.038-.884-1.994-.884-1.086,0-1.872.321-2.359.967-.488.647-.73,1.708-.73,3.187v7.607h-3.989V5.18h3.99,0ZM4.409,5.18v8.31l7.838-8.31h5.505l-7.837,7.915,8.595,12.128h-5.533l-6.037-9.011-2.53,2.556v6.455H0V5.18h4.409ZM25.25,13.32c-.675,0-1.236.136-1.685.407-.438.262-.808.622-1.082,1.052-.272.431-.463.928-.576,1.49-.112.563-.168,1.136-.168,1.71,0,.58.057,1.147.168,1.7.113.552.304,1.047.576,1.487.272.441.632.792,1.082,1.053.449.262,1.01.394,1.685.394s1.24-.132,1.7-.394c.448-.252.825-.615,1.095-1.053.27-.44.464-.935.575-1.487.114-.56.17-1.129.169-1.7,0-.578-.056-1.15-.169-1.71-.098-.528-.293-1.033-.575-1.49-.277-.432-.652-.793-1.095-1.052-.46-.271-1.026-.407-1.7-.407Z" fill="#ffffff"/></svg>