<svg id="SunTek_Logo" data-name="SunTek Logo" xmlns="http://www.w3.org/2000/svg" xmlns:xlink="http://www.w3.org/1999/xlink" width="351" height="74.561" viewBox="0 0 351 74.561">
  <defs>
    <clipPath id="clip-path">
      <rect id="Rectangle_631" data-name="Rectangle 631" width="351" height="74.561" fill="none"/>
    </clipPath>
  </defs>
  <g id="Group_1085" data-name="Group 1085" clip-path="url(#clip-path)">
    <path id="Path_2" data-name="Path 2" d="M45.736,22.427a5.025,5.025,0,0,0-2.494-4.82,11.507,11.507,0,0,0-5.775-1.278c-5.115,0-7.638,1.475-8.089,4.032-1.874,10.623,40.011,4.032,35.467,29.8-2.9,16.427-17.975,24.4-37.45,24.4C8.7,74.561-1.568,63.641.2,50.855H22.427a6.5,6.5,0,0,0,2.848,5.606,11.145,11.145,0,0,0,6.278,1.772c5.8,0,9.968-1.869,10.559-5.214C44,42.3,1.978,49.675,6.749,22.624,9.4,7.573,23.721,0,41.428,0,61.1,0,68.283,10.032,67.769,22.427Z" transform="translate(0 0)" fill="#e50019"/>
    <path id="Path_3" data-name="Path 3" d="M89.467,63.145H70.482l1.336-7.575c-6.364,7.082-11.727,9.049-20.188,9.049-11.213,0-17.278-6.885-14.675-21.639L42.488,11.6h20.46L58.038,39.438c-1.249,7.082.813,9.345,5.73,9.345,5.9,0,8.552-4.426,9.957-12.395L78.1,11.6h20.46Z" transform="translate(29.922 9.548)" fill="#e50019"/>
    <path id="Path_4" data-name="Path 4" d="M76.581,12.267H95.27l-1.422,8.065c5.715-6.2,11.323-9.54,19.092-9.54,13.574,0,18.564,7.967,16.066,22.131l-5.447,30.887H103.1l4.8-27.247c.9-5.115.324-9.64-5.48-9.64-6.295,0-8.679,4.032-9.841,10.623L87.951,63.811H67.491Z" transform="translate(55.546 8.882)" fill="#e50019"/>
    <path id="Path_5" data-name="Path 5" d="M101.724,1.025H169.38L166.1,19.616H142.514L133.3,71.849H110.088L119.3,19.616H98.446Z" transform="translate(81.022 0.843)" fill="#003e7b"/>
    <path id="Path_6" data-name="Path 6" d="M164.933,32.234a7.533,7.533,0,0,0-7.471-8.951c-6.1,0-10.149,3.444-11.12,8.951ZM144.5,42.662c-1.076,6.1,2.935,10.132,8.346,10.132a10.006,10.006,0,0,0,8.47-4.525h19.575c-5.8,12.787-19.526,17.016-31.527,17.016-16.526,0-27.648-9.443-24.594-26.754,2.982-16.919,17.579-27.739,34.1-27.739,19.083,0,28.268,13.18,24.676,31.87Z" transform="translate(102.273 8.882)" fill="#003e7b"/>
    <path id="Path_7" data-name="Path 7" d="M179.052,57.388l-2.55,14.46h-20.46L168.532,1.025h20.46l-6.175,35.018L198.673,20.3h23.9l-22.6,19.967,15.973,31.576H191.356l-7.792-18.3Z" transform="translate(128.424 0.843)" fill="#003e7b"/>
    <path id="Path_8" data-name="Path 8" d="M179.26,4.274c.609,0,.808-.3.808-.609,0-.386-.31-.6-.908-.6h-.819V4.274Zm.919,2.5-.354-.72a3.911,3.911,0,0,0-.6-.862.845.845,0,0,0-.72-.222h-.166v1.8h-.884V2.384h2.168c.941,0,1.384.53,1.384,1.227a1.214,1.214,0,0,1-1.183,1.229v.022c.376.133.5.253.939,1.028l.51.886Zm-4.171-2.213a3.324,3.324,0,1,0,3.318-3.32,3.323,3.323,0,0,0-3.318,3.32m7.456,0A4.137,4.137,0,1,1,179.325.424a4.132,4.132,0,0,1,4.138,4.138" transform="translate(144.182 0.349)" fill="#003e7b"/>
  </g>
</svg>
